<svg width="60" height="61" viewBox="0 0 60 61" fill="none" xmlns="http://www.w3.org/2000/svg">
<path d="M43.4418 0.5H16.5575C7.42769 0.5 0 7.92804 0 17.0578V43.9422C0 53.0723 7.42769 60.5 16.5575 60.5H43.4418C52.5723 60.5 60 53.072 60 43.9422V17.0578C60.0004 7.92804 52.5723 0.5 43.4418 0.5ZM54.6769 43.9422C54.6769 50.1369 49.6369 55.1765 43.4422 55.1765H16.5575C10.3631 55.1769 5.32349 50.1369 5.32349 43.9422V17.0578C5.32349 10.8634 10.3631 5.82349 16.5575 5.82349H43.4418C49.6366 5.82349 54.6765 10.8634 54.6765 17.0578L54.6769 43.9422Z" fill="black"/>
<path d="M30 15.041C21.475 15.041 14.5396 21.9765 14.5396 30.5015C14.5396 39.0262 21.475 45.9613 30 45.9613C38.5251 45.9613 45.4605 39.0262 45.4605 30.5015C45.4605 21.9765 38.5251 15.041 30 15.041ZM30 40.6374C24.4107 40.6374 19.863 36.0905 19.863 30.5011C19.863 24.9115 24.4104 20.3642 30 20.3642C35.5897 20.3642 40.137 24.9115 40.137 30.5011C40.137 36.0905 35.5893 40.6374 30 40.6374Z" fill="black"/>
<path d="M46.109 10.5273C45.0833 10.5273 44.0758 10.9426 43.3514 11.6701C42.6235 12.3941 42.2051 13.402 42.2051 14.4312C42.2051 15.4573 42.6239 16.4648 43.3514 17.1924C44.0754 17.9163 45.0833 18.3351 46.109 18.3351C47.1382 18.3351 48.1425 17.9163 48.8701 17.1924C49.5976 16.4648 50.0129 15.4569 50.0129 14.4312C50.0129 13.402 49.5976 12.3941 48.8701 11.6701C48.1461 10.9426 47.1382 10.5273 46.109 10.5273Z" fill="black"/>
</svg>
