<svg xmlns:inkscape="http://www.inkscape.org/namespaces/inkscape" xmlns:sodipodi="http://sodipodi.sourceforge.net/DTD/sodipodi-0.dtd" xmlns="http://www.w3.org/2000/svg" xmlns:svg="http://www.w3.org/2000/svg" width="162.95251mm" height="55.936676mm" viewBox="0 0 162.95251 55.936676" version="1.1" id="svg1" inkscape:version="1.3.2 (091e20e, 2023-11-25, custom)" sodipodi:docname="logoEsteso.svg">
  <sodipodi:namedview id="namedview1" pagecolor="#e6e6e6" bordercolor="#000000" borderopacity="1" inkscape:showpageshadow="0" inkscape:pageopacity="0" inkscape:pagecheckerboard="false" inkscape:deskcolor="#505050" inkscape:document-units="mm" showborder="true" inkscape:zoom="2.2179519" inkscape:cx="307.94176" inkscape:cy="105.72817" inkscape:window-width="1920" inkscape:window-height="1009" inkscape:window-x="1912" inkscape:window-y="-8" inkscape:window-maximized="1" inkscape:current-layer="layer1"/>
  <defs id="defs1"/>
  <g inkscape:label="Layer 1" inkscape:groupmode="layer" id="layer1" transform="translate(-32.900441,-23.439264)">
    <g id="g1" transform="matrix(2.1270295,0,0,2.1270295,-141.27611,-66.163183)" inkscape:export-filename="g1.svg" inkscape:export-xdpi="96" inkscape:export-ydpi="96">
      <path id="path1-2-2" style="font-weight:bold;font-size:25.4px;font-family:Rajdhani;-inkscape-font-specification:'Rajdhani, Bold';text-align:center;text-anchor:middle;fill:#0084e7;fill-opacity:1;fill-rule:evenodd;stroke-width:3.94722;stroke-linecap:square;stroke-miterlimit:0;stroke-dashoffset:1607.84" d="m 86.762908,48.516561 c -1.55624,10e-7 -2.75797,0.413594 -3.60503,1.240965 -0.84707,0.827365 -1.27065,2.019212 -1.27065,3.575449 v 5.437057 c 0,1.556238 0.42358,2.747968 1.27065,3.57534 0.84706,0.82737 2.04879,1.241073 3.60503,1.241073 h 0.70915 c 0.61067,0 1.19184,-0.128061 1.74341,-0.384152 0.55158,-0.275787 0.93566,-0.679617 1.15235,-1.211497 h 0.11819 v 0.975114 c 0,0.413682 0.20685,0.620535 0.62054,0.620535 h 2.48214 c 0.43338,0 0.65,-0.206853 0.65,-0.620535 v -2.203511 -6.966776 -0.0097 c 0,-0.413682 -0.20685,-0.620535 -0.62053,-0.620535 h -2.54119 c -0.39398,0 -0.59096,0.206853 -0.59096,0.620535 v 0.0097 4.294722 c 0,1.497142 -0.67959,2.245759 -2.03884,2.245759 h -1.09331 c -0.63037,0 -1.07359,-0.128059 -1.32968,-0.38415 -0.25609,-0.275787 -0.38416,-0.728888 -0.38416,-1.359266 v -5.08237 c 0,-0.630377 0.12807,-1.073601 0.38416,-1.329689 0.25609,-0.275789 0.17014,-0.413729 0.80052,-0.413729 h 2.60553 0.18406 c 0.41369,0 0.62054,-0.206851 0.62054,-0.620535 v -2.038844 c 0,-0.216689 -0.0394,-0.364502 -0.11819,-0.443301 -0.0788,-0.0985 -0.24625,-0.14766 -0.50235,-0.14766 h -0.18406 z" sodipodi:nodetypes="ssssssscccssssccsssscssscsscscssscscs"/>
      <path id="text1-7" style="font-weight:bold;font-size:25.4px;font-family:Rajdhani;-inkscape-font-specification:'Rajdhani, Bold';text-align:center;text-anchor:middle;fill:#eaeaee;fill-opacity:1;fill-rule:evenodd;stroke-width:3.94722;stroke-linecap:square;stroke-miterlimit:0;stroke-dashoffset:1607.84" d="m 96.599638,46.98941 v 1.527038 h -3.58377 c -0.41368,0 -0.62063,0.206951 -0.62063,0.620634 v 2.038636 c -1e-5,0.393986 0.20695,0.591178 0.62063,0.591178 h 1.93322 0.40721 c 0.39398,0 0.59117,0.197194 0.59117,0.591178 v 1.283126 0.35295 0.17415 c 0,0.393982 0.19668,0.591178 0.59067,0.591178 h 0.37775 c 0.39399,0 0.59066,0.186927 0.59066,0.561206 v 2.600358 c 0,0.393985 -0.19667,0.591179 -0.59066,0.591179 h -0.37775 c -0.39399,0 -0.59067,0.196675 -0.59067,0.590661 v 0.407727 3.455087 c 0,0.413666 0.20644,0.620634 0.62012,0.620634 h 0.25787 0.40721 c 0.39398,0 0.59118,0.197193 0.59118,0.591178 v 0.5271 0.167431 c 0,0.393987 0.19667,0.590662 0.59066,0.590662 h 2.570902 c 0.39399,0 0.59118,-0.196675 0.59118,-0.590662 v -2.600358 c 0,-0.374283 -0.19719,-0.561723 -0.59118,-0.561723 h -1.285192 v -0.970483 -0.5271 -3.270601 -0.407727 -7.396965 -0.02945 c 0,-0.216691 -0.0395,-0.364584 -0.11834,-0.443384 -0.0788,-0.0985 -0.2462,-0.147795 -0.50229,-0.147795 h -0.0326 v -1.527038 h -0.77722 v 1.527038 h -0.89297 v -1.527038 z" sodipodi:nodetypes="ccsccscssccsssssssscsscsscssssssccccccscsccccccc"/>
      <path d="m 100.8698,57.910021 v -0.906743 c 0,-0.393983 0.197,-0.59098 0.59098,-0.59098 h 0.90675 c 0.39399,0 0.59098,0.187145 0.59098,0.561429 v 0.936295 c 0,0.393987 -0.19699,0.59098 -0.59098,0.59098 h -0.90675 c -0.39398,0 -0.59098,-0.196993 -0.59098,-0.590981 z" style="font-weight:bold;font-size:25.4px;font-family:Rajdhani;-inkscape-font-specification:'Rajdhani, Bold';text-align:center;text-anchor:middle;fill:#0084e7;fill-opacity:1;fill-rule:evenodd;stroke-width:3.94722;stroke-linecap:square;stroke-miterlimit:0;stroke-dashoffset:1607.84" id="path1-0-2-9-3-0" sodipodi:nodetypes="sssssssss"/>
      <path d="m 102.10559,60.508843 v -0.906744 c 0,-0.393984 0.19699,-0.590979 0.59098,-0.590979 h 0.90675 c 0.39398,0 0.59098,0.187144 0.59098,0.561429 v 0.936294 c 0,0.393987 -0.197,0.590981 -0.59098,0.590981 h -0.90675 c -0.39399,0 -0.59098,-0.196994 -0.59098,-0.590981 z" style="font-weight:bold;font-size:25.4px;font-family:Rajdhani;-inkscape-font-specification:'Rajdhani, Bold';text-align:center;text-anchor:middle;fill:#0084e7;fill-opacity:1;fill-rule:evenodd;stroke-width:3.94722;stroke-linecap:square;stroke-miterlimit:0;stroke-dashoffset:1607.84" id="path1-0-2-9-3-0-3" sodipodi:nodetypes="sssssssss"/>
      <path id="path8-0-7" style="fill:#ffb60a;fill-opacity:1;fill-rule:evenodd;stroke-width:0.31729;stroke-linecap:square;stroke-miterlimit:0;stroke-dashoffset:1607.84" d="m 97.812478,42.125624 c -0.76969,0 -1.53582,0.568805 -1.53582,1.680001 v 2.238106 h -0.74156 v 0.945679 h 4.576982 v -0.945679 h -0.741552 v -2.238106 c -0.0153,-1.129424 -0.78835,-1.680001 -1.55805,-1.680001 z" sodipodi:nodetypes="sscccccccs"/>
    </g>
    <path style="font-weight:500;font-size:40.5479px;font-family:Rajdhani;-inkscape-font-specification:'Rajdhani, Medium';text-align:center;text-anchor:middle;fill:#eaeaee;fill-rule:evenodd;stroke-width:5.4165;stroke-linecap:square;stroke-miterlimit:0;stroke-dashoffset:1607.84" d="m 89.252447,59.613095 h -1.82466 c -0.37845,0 -0.56767,-0.189223 -0.56767,-0.56767 V 33.581343 c 0,-0.378447 0.18922,-0.567671 0.56767,-0.567671 h 1.82466 c 0.37845,0 0.56767,0.189224 0.56767,0.567671 v 1.581368 h 0.16219 c 0.67579,-1.432693 2.05442,-2.149039 4.13588,-2.149039 h 2.43288 c 1.83817,0 3.25734,0.527123 4.257533,1.581368 1.02721,1.054245 1.54082,2.527486 1.54082,4.419721 v 8.677251 c 0,1.892235 -0.51361,3.365476 -1.54082,4.419721 -1.000193,1.054246 -2.419363,1.581369 -4.257533,1.581369 h -2.43288 c -2.08146,0 -3.46009,-0.716346 -4.13588,-2.149039 h -0.16219 v 7.501362 c 0,0.378447 -0.18922,0.56767 -0.56767,0.56767 z m 4.33862,-8.515059 h 2.39233 c 2.29771,0 3.44657,-1.175889 3.44657,-3.527668 v -8.433963 c 0,-2.351778 -1.14886,-3.527667 -3.44657,-3.527667 h -2.39233 c -1.21643,0 -2.14903,0.324383 -2.7978,0.973149 -0.64877,0.648767 -0.97315,1.567853 -0.97315,2.757258 v 8.028484 c 0,1.189405 0.32438,2.108491 0.97315,2.757257 0.64877,0.648767 1.58137,0.97315 2.7978,0.97315 z m 16.340813,2.595066 h -1.82465 c -0.37845,0 -0.56767,-0.189224 -0.56767,-0.567671 V 33.581343 c 0,-0.378447 0.18922,-0.567671 0.56767,-0.567671 h 1.82465 c 0.37845,0 0.56768,0.189224 0.56768,0.567671 v 1.621916 h 0.16219 c 0.27032,-0.594703 0.78393,-1.10831 1.54082,-1.540821 0.75689,-0.432511 1.64895,-0.648766 2.67616,-0.648766 h 1.58137 c 0.35141,0 0.52712,0.189224 0.52712,0.567671 v 1.500272 c 0,0.189223 -0.0405,0.337899 -0.12164,0.446027 -0.0811,0.0811 -0.21626,0.108129 -0.40548,0.0811 h -2.18959 c -1.21644,0 -2.14904,0.364931 -2.7978,1.094793 -0.64877,0.729862 -0.97315,1.730044 -0.97315,3.000545 v 13.421355 c 0,0.378447 -0.18923,0.567671 -0.56768,0.567671 z m 19.78738,0 h -3.48712 c -1.86521,0 -3.33845,-0.527123 -4.41972,-1.581369 -1.05425,-1.054245 -1.58137,-2.527486 -1.58137,-4.419721 v -8.677251 c 0,-1.892235 0.52712,-3.365476 1.58137,-4.419721 1.08127,-1.054245 2.55451,-1.581368 4.41972,-1.581368 h 3.48712 c 1.8652,0 3.32492,0.527123 4.37917,1.581368 1.08128,1.054245 1.62192,2.527486 1.62192,4.419721 v 8.677251 c 0,1.892235 -0.54064,3.365476 -1.62192,4.419721 -1.05425,1.054246 -2.51397,1.581369 -4.37917,1.581369 z m -3.16274,-2.595066 h 2.83835 c 2.27069,0 3.40603,-1.162373 3.40603,-3.48712 v -8.515059 c 0,-2.324746 -1.13534,-3.487119 -3.40603,-3.487119 h -2.83835 c -2.27068,0 -3.40602,1.162373 -3.40602,3.487119 v 8.515059 c 0,2.324747 1.13534,3.48712 3.40602,3.48712 z m 11.51561,8.596155 h -1.66247 c -0.37845,0 -0.56767,-0.189224 -0.56767,-0.567671 v -1.500272 c 0,-0.378447 0.18922,-0.567671 0.56767,-0.567671 h 0.93261 c 2.51397,0 3.77095,-1.270501 3.77095,-3.811502 V 33.581343 c 0,-0.378447 0.18922,-0.567671 0.56767,-0.567671 h 1.82466 c 0.37845,0 0.56767,0.189224 0.56767,0.567671 v 20.071211 c 0,1.865203 -0.54064,3.338444 -1.62192,4.419721 -1.05425,1.081277 -2.51397,1.621916 -4.37917,1.621916 z m 25.99123,-6.001089 h -8.59616 c -1.8652,0 -3.33844,-0.527123 -4.41972,-1.581369 -1.05425,-1.054245 -1.58137,-2.527486 -1.58137,-4.419721 v -8.677251 c 0,-1.892235 0.52712,-3.365476 1.58137,-4.419721 1.08128,-1.054245 2.55452,-1.581368 4.41972,-1.581368 h 3.40603 c 1.8652,0 3.32492,0.527123 4.37917,1.581368 1.05425,1.054245 1.58137,2.527486 1.58137,4.419721 v 5.149584 c 0,0.405479 -0.18922,0.608218 -0.56767,0.608218 h -11.47506 c -0.27032,0 -0.40548,0.121644 -0.40548,0.364931 v 2.473422 c 0,2.351779 1.13534,3.527668 3.40603,3.527668 h 8.27177 c 0.37845,0 0.56767,0.189223 0.56767,0.56767 v 1.459725 c 0,0.351415 -0.18922,0.527123 -0.56767,0.527123 z M 152.79104,42.623525 h 8.75835 c 0.27032,0 0.40548,-0.13516 0.40548,-0.405479 v -3.122189 c 0,-2.324746 -1.13534,-3.487119 -3.40603,-3.487119 h -2.75725 c -2.27069,0 -3.40603,1.162373 -3.40603,3.487119 v 3.122189 c 0,0.270319 0.13516,0.405479 0.40548,0.405479 z m 29.07287,9.042182 v 1.500272 c 0,0.351415 -0.18922,0.527123 -0.56767,0.527123 h -5.87944 c -1.86521,0 -3.33845,-0.527123 -4.41972,-1.581369 -1.05425,-1.054245 -1.58137,-2.527486 -1.58137,-4.419721 v -8.677251 c 0,-1.892235 0.52712,-3.365476 1.58137,-4.419721 1.08127,-1.054245 2.55451,-1.581368 4.41972,-1.581368 h 5.87944 c 0.37845,0 0.56767,0.189224 0.56767,0.567671 v 1.500272 c 0,0.351415 -0.18922,0.527123 -0.56767,0.527123 h -5.55506 c -2.24365,0 -3.36548,1.175889 -3.36548,3.527667 v 8.433963 c 0,2.351779 1.12183,3.527668 3.36548,3.527668 h 5.55506 c 0.37845,0 0.56767,0.189224 0.56767,0.567671 z m 4.90631,-16.056969 h -2.23014 c -0.37845,0 -0.56767,-0.175708 -0.56767,-0.527123 v -1.500272 c 0,-0.378447 0.18922,-0.567671 0.56767,-0.567671 h 2.23014 c 0.27031,0 0.40547,-0.121644 0.40547,-0.364931 v -3.48712 c 0,-0.378447 0.18923,-0.56767 0.56768,-0.56767 h 1.82465 c 0.35141,0 0.52712,0.189223 0.52712,0.56767 v 3.48712 c 0,0.243287 0.14868,0.364931 0.44603,0.364931 h 4.29808 c 0.40548,0 0.60822,0.189224 0.60822,0.567671 v 1.500272 c 0,0.351415 -0.20274,0.527123 -0.60822,0.527123 h -4.29808 c -0.29735,0 -0.44603,0.121644 -0.44603,0.364931 v 11.677795 c 0,2.297715 1.18941,3.446572 3.56822,3.446572 h 1.58137 c 0.40548,0 0.60822,0.189224 0.60822,0.567671 v 1.500272 c 0,0.351415 -0.20274,0.527123 -0.60822,0.527123 h -1.9463 c -1.86521,0 -3.35196,-0.513607 -4.46027,-1.540821 -1.10831,-1.054245 -1.66247,-2.51397 -1.66247,-4.379173 V 35.973669 c 0,-0.243287 -0.13516,-0.364931 -0.40547,-0.364931 z" id="text1" aria-label="project" sodipodi:nodetypes="sssssssccsscsscssccssssssssssssscssssssccsssssccssssscsscsscsscsscsssssssssssssssssssssscssscsscssssssssssssssssssssssssssscsscssssssssssssssssssssssssssssssssssssscsss"/>
    <path d="m 141.11322,29.607648 v -3.811502 c 0,-0.378448 0.1757,-0.567671 0.52712,-0.567671 h 1.86521 c 0.37844,0 0.56767,0.189223 0.56767,0.567671 v 3.811502 c 0,0.378447 -0.18923,0.567671 -0.56767,0.567671 h -1.86521 c -0.35142,0 -0.52712,-0.189224 -0.52712,-0.567671 z" style="font-weight:500;font-size:40.5479px;font-family:Rajdhani;-inkscape-font-specification:'Rajdhani, Medium';text-align:center;text-anchor:middle;fill:#ffb60a;fill-opacity:1;fill-rule:evenodd;stroke-width:5.4165;stroke-linecap:square;stroke-miterlimit:0;stroke-dashoffset:1607.84" id="path1"/>
    <path style="font-size:16.2496px;font-family:Rajdhani;-inkscape-font-specification:'Rajdhani, Normal';text-align:center;text-anchor:middle;fill:#ffb60a;fill-rule:evenodd;stroke-width:2.17067;stroke-linecap:square;stroke-miterlimit:0;stroke-dashoffset:1607.84" d="m 87.672597,66.652499 v 10.058502 q 0,0.194995 -0.17874,0.194995 h -0.47124 q -0.1625,0 -0.1625,-0.194995 V 66.652499 q 0,-0.194995 0.1625,-0.194995 h 0.47124 q 0.17874,0 0.17874,0.194995 z m 5.11862,10.253497 h -0.47124 q -0.17874,0 -0.17874,-0.194995 v -9.376019 q 0,-0.146246 -0.1625,-0.146246 h -2.35619 q -0.195,0 -0.195,-0.178746 v -0.373741 q 0,-0.178745 0.195,-0.178745 h 5.84985 q 0.195,0 0.195,0.178745 v 0.373741 q 0,0.178746 -0.195,0.178746 h -2.35619 q -0.16249,0 -0.16249,0.146246 v 9.376019 q 0,0.194995 -0.1625,0.194995 z m 8.709793,0 h -2.047453 q -1.05623,0 -1.67371,-0.617485 -0.60124,-0.617485 -0.60124,-1.689958 v -5.833606 q 0,-1.072474 0.60124,-1.689959 0.61748,-0.617484 1.67371,-0.617484 h 2.047453 q 1.05622,0 1.65745,0.617484 0.61749,0.617485 0.61749,1.689959 v 0.79623 q 0,0.194995 -0.17875,0.194995 h -0.45499 q -0.17874,0 -0.17874,-0.194995 v -0.763731 q 0,-0.779981 -0.40624,-1.186221 -0.38999,-0.422489 -1.13747,-0.422489 h -1.901213 q -0.74748,0 -1.13747,0.422489 -0.38999,0.42249 -0.38999,1.186221 v 5.768608 q 0,0.763731 0.38999,1.18622 0.38999,0.42249 1.13747,0.42249 h 1.901213 q 0.74748,0 1.13747,-0.40624 0.40624,-0.42249 0.40624,-1.20247 v -0.763731 q 0,-0.194996 0.17874,-0.194996 h 0.45499 q 0.17875,0 0.17875,0.194996 v 0.79623 q 0,1.072473 -0.61749,1.689958 -0.60123,0.617485 -1.65745,0.617485 z m 8.53103,0 h -1.7712 q -1.05623,0 -1.67371,-0.617485 -0.60124,-0.617485 -0.60124,-1.689958 v -5.833606 q 0,-1.072474 0.60124,-1.689959 0.61748,-0.617484 1.67371,-0.617484 h 1.7712 q 1.05623,0 1.67371,0.617484 0.61748,0.617485 0.61748,1.689959 v 0.731232 q 0,0.194995 -0.17874,0.194995 h -0.47124 q -0.17874,0 -0.17874,-0.194995 v -0.698733 q 0,-0.779981 -0.39,-1.186221 -0.38999,-0.422489 -1.13747,-0.422489 h -1.64121 q -0.74748,0 -1.13747,0.422489 -0.38999,0.42249 -0.38999,1.186221 v 5.768608 q 0,0.763731 0.38999,1.18622 0.38999,0.42249 1.13747,0.42249 h 1.64121 q 0.74748,0 1.13747,-0.40624 0.39,-0.42249 0.39,-1.20247 v -2.144947 q 0,-0.146247 -0.14625,-0.146247 h -1.8687 q -0.17875,0 -0.17875,-0.178745 v -0.373741 q 0,-0.178746 0.17875,-0.178746 h 2.53493 q 0.30874,0 0.30874,0.324992 v 2.729933 q 0,1.072473 -0.61748,1.689958 -0.61748,0.617485 -1.67371,0.617485 z m 8.93728,0 h -0.50374 q -0.17875,0 -0.11375,-0.194995 l 3.23367,-10.058502 q 0.0487,-0.194995 0.2275,-0.194995 h 0.76373 q 0.16249,0 0.22749,0.194995 l 3.23367,10.058502 q 0.0488,0.194995 -0.11374,0.194995 h -0.51999 q -0.1625,0 -0.21125,-0.194995 l -0.87747,-2.599936 h -4.2574 l -0.87748,2.599936 q -0.065,0.194995 -0.21124,0.194995 z m 3.18492,-9.554764 -1.8687,6.028601 h 3.81865 l -1.88495,-6.028601 z m 6.22361,9.554764 h -0.47124 q -0.16249,0 -0.16249,-0.194995 v -7.897306 q 0,-0.194995 0.16249,-0.194995 h 0.47124 q 0.17875,0 0.17875,0.194995 v 0.649984 h 0.065 q 0.45498,-0.844979 1.68995,-0.844979 h 1.07248 q 1.03997,0 1.64121,0.617485 0.60123,0.617485 0.60123,1.689958 v 5.784858 q 0,0.194995 -0.16249,0.194995 h -0.47124 q -0.17875,0 -0.17875,-0.194995 v -5.752358 q 0,-0.763732 -0.38999,-1.186221 -0.38999,-0.42249 -1.13747,-0.42249 h -1.05622 q -0.77998,0 -1.23497,0.42249 -0.43874,0.40624 -0.43874,1.169971 v 5.768608 q 0,0.194995 -0.17875,0.194995 z m 10.82223,-0.471238 h -1.05622 q -1.03998,0 -1.65746,-0.617485 -0.60124,-0.617485 -0.60124,-1.673709 v -3.217421 q 0,-1.072473 0.60124,-1.689958 0.61748,-0.617485 1.67371,-0.617485 h 3.44491 q 0.17875,0 0.17875,0.194995 v 8.059802 q 0,1.072473 -0.61749,1.689958 -0.61748,0.617485 -1.6737,0.617485 h -2.95743 q -0.17875,0 -0.17875,-0.178746 v -0.38999 q 0,-0.162496 0.17875,-0.162496 h 2.89243 q 0.74748,0 1.13747,-0.42249 0.38999,-0.40624 0.38999,-1.18622 v -1.25122 h -0.065 q -0.40624,0.84498 -1.68996,0.84498 z m 1.75496,-2.323693 v -4.614886 q 0,-0.146247 -0.14625,-0.146247 h -2.56743 q -0.74749,0 -1.15373,0.42249 -0.38999,0.40624 -0.38999,1.186221 v 3.152422 q 0,0.763731 0.38999,1.186221 0.40624,0.40624 1.15373,0.40624 h 1.03997 q 0.77998,0 1.21872,-0.40624 0.45499,-0.42249 0.45499,-1.186221 z m 3.33118,-6.857331 v -1.559962 q 0,-0.178745 0.16249,-0.178745 h 0.48749 q 0.1625,0 0.1625,0.178745 v 1.559962 q 0,0.194995 -0.1625,0.194995 h -0.48749 q -0.16249,0 -0.16249,-0.194995 z m 0,9.457267 v -7.897306 q 0,-0.194995 0.16249,-0.194995 h 0.47124 q 0.17875,0 0.17875,0.194995 v 7.897306 q 0,0.194995 -0.1625,0.194995 h -0.48749 q -0.16249,0 -0.16249,-0.194995 z m 6.84106,0.194995 h -1.39746 q -1.05623,0 -1.67371,-0.617485 -0.60124,-0.617485 -0.60124,-1.689958 v -3.67241 q 0,-1.072473 0.60124,-1.689958 0.61748,-0.617485 1.67371,-0.617485 h 1.39746 q 1.05623,0 1.67371,0.617485 0.61749,0.617485 0.61749,1.689958 v 3.67241 q 0,1.072473 -0.61749,1.689958 -0.61748,0.617485 -1.67371,0.617485 z m -1.33246,-0.731232 h 1.26747 q 0.74748,0 1.13747,-0.40624 0.40624,-0.42249 0.40624,-1.186221 v -3.63991 q 0,-0.763731 -0.40624,-1.169971 -0.38999,-0.42249 -1.13747,-0.42249 h -1.26747 q -0.74748,0 -1.13748,0.42249 -0.38999,0.40624 -0.38999,1.169971 v 3.63991 q 0,0.763731 0.38999,1.186221 0.39,0.40624 1.13748,0.40624 z m 6.27235,3.201171 h -0.60124 q -0.17874,0 -0.17874,-0.178745 v -0.389991 q 0,-0.178745 0.17874,-0.178745 h 0.43874 q 0.48749,0 0.82873,-0.146247 0.34124,-0.129997 0.60124,-0.503737 0.25999,-0.373741 0.34124,-0.584986 0.22749,-0.503738 0.37374,-0.926227 h -0.30874 q -0.17875,0 -0.2275,-0.194995 l -2.58368,-7.458567 q -0.065,-0.194995 0.12999,-0.194995 h 0.50374 q 0.1625,0 0.21124,0.194995 l 2.3887,6.971079 h 0.065 l 2.3887,-6.971079 q 0.0487,-0.194995 0.21124,-0.194995 h 0.48749 q 0.19499,0 0.14624,0.194995 -2.90867,8.514791 -3.03867,8.807283 -0.11375,0.292493 -0.43874,0.796231 -0.61748,0.958726 -1.91745,0.958726 z" id="text2" aria-label="ITCG Angioy"/>
  </g>
</svg>
