<svg width="60" height="61" viewBox="0 0 60 61" fill="none" xmlns="http://www.w3.org/2000/svg">
<path d="M51.2109 0.5H8.78906C3.94318 0.5 0 4.44318 0 9.28906V51.7109C0 56.5568 3.94318 60.5 8.78906 60.5H51.2109C56.0568 60.5 60 56.5568 60 51.7109V9.28906C60 4.44318 56.0568 0.5 51.2109 0.5ZM21.2109 48.0781H14.1797V23.4688H21.2109V48.0781ZM21.2109 19.9531H14.1797V12.9219H21.2109V19.9531ZM45.8203 48.0781H38.7891V34.0156C38.7891 32.0775 37.2116 30.5 35.2734 30.5C33.3353 30.5 31.7578 32.0775 31.7578 34.0156V48.0781H24.7266V23.4688H31.7578V24.794C33.5999 24.2213 34.7964 23.4688 37.0312 23.4688C41.7998 23.4738 45.8203 27.7516 45.8203 32.8071V48.0781Z" fill="black"/>
</svg>
