<svg width="698" height="819" viewBox="0 0 698 819" fill="none" xmlns="http://www.w3.org/2000/svg">
<path d="M418.629 0H279.086V23.3944H418.629V0Z" fill="#1B4778"/>
<path d="M534.914 46.7887H162.8V70.1832H534.914V46.7887Z" fill="#1B4778"/>
<path d="M255.829 93.5779H23.2571V116.972H255.829V93.5779Z" fill="#1B4778"/>
<path d="M674.458 93.5779H348.858V116.972H674.458V93.5779Z" fill="#1B4778"/>
<path d="M697.714 140.366H395.371V163.761H697.714V140.366Z" fill="#1B4778"/>
<path d="M697.714 327.522H395.371V350.916H697.714V327.522Z" fill="#1B4778"/>
<path d="M511.657 561.467H209.314V584.861H511.657V561.467Z" fill="#1B4778"/>
<path d="M511.657 748.622H186.057V772.017H511.657V748.622Z" fill="#1B4778"/>
<path d="M511.657 608.255H46.5143V631.65H511.657V608.255Z" fill="#1B4778"/>
<path d="M697.715 374.311H441.111V397.705H697.715V374.311Z" fill="#1B4778"/>
<path d="M697.714 421.1H511.657V444.494H697.714V421.1Z" fill="#1B4778"/>
<path d="M697.715 467.889H604.686V491.283H697.715V467.889Z" fill="#1B4778"/>
<path d="M697.715 187.155H348.858V210.549H697.715V187.155Z" fill="#1B4778"/>
<path d="M697.715 280.733H372.115V304.128H697.715V280.733Z" fill="#1B4778"/>
<path d="M697.715 233.944H325.6V257.339H697.715V233.944Z" fill="#1B4778"/>
<path d="M116.286 140.366H0V163.761H116.286V140.366Z" fill="#1B4778"/>
<path d="M93.0286 280.733H0V304.128H93.0286V280.733Z" fill="#1B4778"/>
<path d="M209.314 280.733H139.543V304.128H209.314V280.733Z" fill="#1B4778"/>
<path d="M604.686 514.678H558.172V538.073H604.686V514.678Z" fill="#1B4778"/>
<path d="M651.2 608.255H558.172V631.65H651.2V608.255Z" fill="#1B4778"/>
<path d="M697.714 514.678H651.2V538.073H697.714V514.678Z" fill="#1B4778"/>
<path d="M69.7714 233.944H0V257.339H69.7714V233.944Z" fill="#1B4778"/>
<path d="M69.7714 187.155H0V210.549H69.7714V187.155Z" fill="#1B4778"/>
<path d="M232.572 327.522H0V350.916H232.572V327.522Z" fill="#1B4778"/>
<path d="M465.143 514.678H209.314V538.073H465.143V514.678Z" fill="#1B4778"/>
<path d="M441.886 795.411H255.829V818.805H441.886V795.411Z" fill="#1B4778"/>
<path d="M395.371 467.889H209.314V491.283H395.371V467.889Z" fill="#1B4778"/>
<path d="M325.6 655.044H69.7714V678.439H325.6V655.044Z" fill="#1B4778"/>
<path d="M395.372 701.833H116.286V725.228H395.372V701.833Z" fill="#1B4778"/>
<path d="M279.086 374.311H0V397.705H279.086V374.311Z" fill="#1B4778"/>
<path d="M325.6 421.1H0V444.494H325.6V421.1Z" fill="#1B4778"/>
<path d="M162.8 467.889H0V491.283H162.8V467.889Z" fill="#1B4778"/>
<path d="M139.543 514.678H0V538.073H139.543V514.678Z" fill="#1B4778"/>
<path d="M674.458 561.467H581.429V584.861H674.458V561.467Z" fill="#1B4778"/>
<path d="M581.429 701.833H488.4V725.228H581.429V701.833Z" fill="#1B4778"/>
<path d="M627.943 655.044H488.4V678.439H627.943V655.044Z" fill="#1B4778"/>
<path d="M138.767 561.467H22.4813V584.861H138.767V561.467Z" fill="#1B4778"/>
<path d="M394.9 84.8495C396.95 85.2882 399 85.7258 401.05 86.1622C422.132 91.2363 433.81 101.019 445.683 117.855C445.683 119.175 445.683 120.496 445.683 121.856C446.381 121.856 447.08 121.856 447.799 121.856C450.547 126.458 450.585 131.704 451.039 136.858C451.55 143.174 451.55 143.174 452.614 149.415C453.361 153.258 453.241 157.09 453.221 160.987C453.225 161.798 453.229 162.609 453.234 163.445C453.232 164.615 453.232 164.615 453.23 165.809C453.228 166.515 453.227 167.222 453.226 167.95C453.089 169.864 453.089 169.864 452.031 172.864C451.912 174.266 451.843 175.671 451.808 177.076C450.98 201.995 450.98 201.995 443.964 211.183C438.973 218.008 439.302 224.903 439.335 232.875C439.297 233.946 439.259 235.017 439.22 236.121C439.043 242.665 439.534 249.121 440.195 255.629C440.306 256.799 440.306 256.799 440.419 257.993C441.265 265.528 442.143 272.308 448.646 277.281C449.392 277.84 450.137 278.399 450.905 278.975C454.903 282.467 457.132 286.998 459.635 291.51C465.058 302.04 465.058 302.04 475.042 308.075C476.177 308.343 477.311 308.611 478.48 308.888C478.829 309.548 479.179 310.208 479.538 310.888C481.39 311.685 481.39 311.685 483.572 312.326C486.988 313.461 489.356 314.803 492.234 316.889C493.369 317.24 494.503 317.59 495.672 317.952C496.633 318.261 497.593 318.57 498.582 318.889C498.582 319.549 498.582 320.21 498.582 320.89C500.644 321.117 502.709 321.336 504.781 321.448C507.594 321.997 509.002 323.261 511.278 324.89C514.057 325.786 516.847 326.457 519.692 327.145C520.406 327.391 521.121 327.637 521.857 327.891C521.857 328.551 521.857 329.211 521.857 329.891C523.527 330.347 525.2 330.793 526.883 331.204C533.635 333.154 539.983 336.434 546.257 339.455C549.686 341.102 553.111 342.534 556.704 343.831C570.935 349.132 581.077 356.815 589.568 368.898C589.919 369.791 590.271 370.685 590.634 371.605C591.153 372.741 591.154 372.741 591.684 373.899C592.731 374.229 593.778 374.559 594.857 374.899C596.444 377.157 596.444 377.157 598.031 380.025C598.555 380.956 599.079 381.886 599.618 382.845C605.661 394.478 608.757 405.618 609.213 418.464C609.475 423.806 610.648 426.622 613.901 430.908C616.691 436.638 616.128 442.256 615.951 448.411C615.79 459.014 616.798 468.129 620.365 478.244C621.638 483.209 621.344 487.8 621.038 492.866C620.881 497.453 620.881 497.453 623.39 501.237C624.099 501.792 624.808 502.348 625.539 502.921C625.944 504.912 626.307 506.912 626.597 508.922C627.295 508.922 627.993 508.922 628.713 508.922C632.259 516.689 633.463 524.841 634.457 533.176C635.06 536.92 636.072 540.267 637.309 543.865C639.083 549.224 639.402 553.543 639.094 559.055C638.727 566.165 640.707 570.644 644.975 576.48C647.758 580.443 647.92 583.739 647.955 588.435C647.977 589.843 647.977 589.843 648 591.279C647.756 593.936 647.756 593.936 646.711 595.785C645.451 598.318 645.312 600.218 645.194 603.008C644.016 623.766 644.016 623.766 637.176 630.942C636.39 631.774 635.603 632.605 634.792 633.462C633.148 635.17 631.491 636.866 629.82 638.549C626.888 641.792 625.289 645.078 623.423 648.945C621.178 651.552 619.524 652.455 616.017 652.946C613.904 653.063 611.786 653.121 609.669 653.134C608.578 653.148 607.487 653.162 606.363 653.177C603.321 652.946 603.321 652.946 601.333 651.951C598.722 650.781 596.88 650.678 594.002 650.637C593.037 650.612 592.072 650.587 591.078 650.561C589.061 650.526 587.045 650.495 585.028 650.467C575.577 650.209 575.577 650.209 571.582 646.945C571.582 646.285 571.582 645.625 571.582 644.945C569.616 644.933 569.616 644.933 567.152 645.32C551.059 647.145 551.059 647.145 544.075 644.945C541.002 644.481 537.917 644.25 534.818 644.007C533.986 643.914 533.154 643.82 532.297 643.724C527.639 643.384 524.619 643.695 520.799 646.363C516.712 650.184 516.473 653.963 516.303 659.197C516.185 660.888 516.06 662.578 515.927 664.268C515.866 665.074 515.806 665.88 515.743 666.711C515.315 670.809 514.514 676.891 511.278 679.951C511.143 682.734 511.082 685.481 511.079 688.265C511.066 689.037 511.053 689.81 511.04 690.607C510.935 696.108 510.935 696.108 513.393 700.954C514.096 701.383 514.798 701.811 515.522 702.253C518.185 704.408 518.319 705.581 518.733 708.831C518.863 709.808 518.993 710.785 519.127 711.791C519.243 712.836 519.358 713.88 519.477 714.957C519.605 716.024 519.732 717.091 519.864 718.19C520.627 725.046 521.119 731.88 521.196 738.773C521.211 739.56 521.225 740.347 521.241 741.158C521.221 743.356 521.221 743.356 520.799 746.962C520.274 747.382 519.749 747.802 519.208 748.234C516.752 750.916 517.214 753.841 517.278 757.218C517.28 757.951 517.282 758.684 517.284 759.44C517.295 761.803 517.328 764.165 517.361 766.528C517.368 768.029 517.373 769.53 517.377 771.031C517.386 772.103 517.387 772.103 517.396 773.197C517.405 774.762 517.403 776.328 517.387 777.894C517.391 782.897 517.856 787.597 518.755 792.531C520.883 805.907 520.883 805.907 518.683 811.973C512.407 817.25 501.534 815.795 493.73 815.751C491.039 815.828 488.348 815.917 485.658 816.015C479.08 816.222 472.512 816.303 465.93 816.317C460.588 816.329 455.249 816.383 449.908 816.465C434.79 816.695 419.678 816.814 404.559 816.795C403.742 816.794 402.926 816.793 402.085 816.792C401.268 816.791 400.451 816.79 399.609 816.789C386.347 816.778 373.107 817.027 359.851 817.393C346.267 817.766 332.694 817.947 319.104 817.924C311.459 817.915 303.837 817.989 296.197 818.267C254.891 819.7 254.891 819.7 245.726 811.973C237.515 798.003 242.796 777.277 245.961 762.5C246.885 759.654 248.258 757.459 249.958 754.963C251.913 751.266 251.453 746.814 251.673 742.735C251.805 741.819 251.938 740.904 252.074 739.961C252.772 739.961 253.47 739.961 254.19 739.961C253.339 736.186 252.306 732.617 251.016 728.959C250.318 728.959 249.619 728.959 248.9 728.959C246.096 723.472 246.507 717.777 246.586 711.831C246.587 710.348 246.587 710.348 246.588 708.834C246.646 699.772 246.646 699.772 247.842 696.953C248.889 696.953 249.937 696.953 251.016 696.953C251.771 699.273 252.47 701.61 253.132 703.955C254.146 705.319 255.192 706.663 256.306 707.955C256.306 708.615 256.306 709.276 256.306 709.956C257.004 709.956 257.702 709.956 258.422 709.956C258.642 707.605 258.642 707.606 258.488 704.767C258.391 701.795 258.343 699.272 259.062 696.371C259.571 693.422 258.997 692.115 257.628 689.452C257.236 688.677 256.843 687.903 256.438 687.104C255.086 684.658 253.587 682.31 252.074 679.951C252.074 679.291 252.074 678.63 252.074 677.95C251.027 677.62 249.979 677.29 248.9 676.95C247.759 671.675 248.118 667.158 251.082 662.573C253.922 660.173 256.733 658.125 259.955 656.22C261.936 654.683 262.712 653.153 263.712 650.946C259.68 653.306 255.656 655.663 251.743 658.197C243.498 663.273 230.759 661.474 221.393 659.947C221.393 659.287 221.393 658.627 221.393 657.947C220.607 657.802 219.822 657.658 219.012 657.509C215.819 656.892 214.244 656.024 211.871 653.946C211.871 653.286 211.871 652.626 211.871 651.946C210.021 650.861 210.021 650.861 207.639 649.945C206.766 649.512 205.893 649.079 204.994 648.633C204.121 648.406 203.248 648.179 202.349 647.945C200.927 648.931 199.518 649.933 198.117 650.946C194.414 651.446 194.414 651.446 190.711 650.946C187.26 648.123 186.456 645.995 186.017 641.882C185.719 639.749 185.719 639.749 184.364 637.943C179.918 636.013 175.35 635.022 170.61 633.943C170.261 633.613 169.912 633.283 169.552 632.943C167.424 632.738 165.29 632.595 163.155 632.478C161.845 632.4 160.536 632.322 159.187 632.241C156.416 632.085 153.644 631.931 150.872 631.78C149.557 631.701 148.243 631.622 146.888 631.54C145.682 631.473 144.475 631.406 143.232 631.337C139.207 630.856 136.061 629.869 132.721 627.692C130.835 625.064 131.124 623.037 131.465 619.94C132.163 618.95 132.861 617.96 133.581 616.94C130.748 616.405 128.117 616.09 125.249 615.877C122.353 615.646 119.534 615.342 116.653 614.94C116.653 614.279 116.653 613.619 116.653 612.939C114.518 612.907 112.381 612.883 110.248 612.967C108.189 612.939 108.189 612.939 106.074 611.939C103.74 611.623 101.399 611.354 99.0562 611.107C97.6059 610.949 96.1556 610.791 94.7055 610.632C93.9474 610.55 93.1894 610.468 92.4083 610.383C56.9015 606.483 56.9014 606.483 51.0589 599.937C49.0114 596.84 48.9429 595.797 48.9429 591.936C48.2447 591.936 47.5464 591.936 46.827 591.936C46.0376 589.478 46.0376 589.478 45.3062 586.122C44.3164 581.77 43.2734 577.469 42 573.182C41.0125 569.842 40.1217 566.51 39.3551 563.118C38.7963 560.647 38.1699 558.393 37.3052 555.992C36.4511 553.519 35.8838 551.283 35.3877 548.741C34.0545 542.175 32.1808 535.754 30.354 529.3C29.2765 525.493 28.2282 521.679 27.1966 517.861C26.9201 516.842 26.6436 515.823 26.3587 514.773C25.8229 512.796 25.2903 510.818 24.7614 508.839C23.2718 503.369 21.4652 498.188 19.3197 492.919C18.7682 490.792 18.2988 488.66 17.8319 486.515C17.0732 483.378 16.1171 480.316 15.1539 477.229C13.2906 471.191 11.8327 465.141 10.5501 458.972C9.90769 455.989 9.90769 455.989 8.7903 453.589C7.61716 450.755 6.85286 447.987 6.12393 445.024C5.84912 443.921 5.57432 442.818 5.29119 441.682C5.01093 440.54 4.73067 439.398 4.44191 438.222C3.88083 435.946 3.31751 433.671 2.75164 431.397C2.5047 430.391 2.25777 429.386 2.00336 428.351C1.43424 425.923 1.43424 425.923 0.276141 423.907C-0.20345 418.58 -0.203449 418.58 1.46995 416.229C4.35043 414.304 6.5051 414.588 10.0051 414.67C12.0019 414.711 12.0019 414.711 14.0392 414.753C21.0466 415.006 28.0474 415.305 35.0488 415.675C36.6438 415.757 38.2388 415.838 39.8338 415.92C44.0674 416.136 48.3007 416.358 52.534 416.581C55.1789 416.719 57.8238 416.857 60.4688 416.994C86.4114 418.337 112.345 419.786 138.273 421.361C149.512 422.042 160.753 422.693 171.995 423.335C174.232 423.463 176.468 423.592 178.705 423.722C179.751 423.782 180.798 423.843 181.876 423.905C182.906 423.965 183.937 424.025 184.999 424.087C187.028 424.201 189.057 424.306 191.087 424.404C196.444 424.664 201.752 425.043 207.086 425.589C208.205 425.684 209.323 425.779 210.476 425.877C212.629 426.06 214.779 426.285 216.921 426.556C219.835 426.775 221.837 426.912 224.567 425.907C227.623 420.841 227.832 414.58 227.699 408.854C227.692 404.394 228.018 400.436 229.195 396.09C229.456 395.116 229.716 394.143 229.985 393.14C230.291 392.071 230.598 391.003 230.914 389.901C231.108 389.207 231.302 388.512 231.502 387.797C239.662 358.589 239.662 358.589 248.305 353.708C252.074 351.895 252.074 351.895 254.388 351.063C258.548 349.43 262.454 347.403 266.423 345.394C279.88 338.643 293.448 332.103 307.287 326.078C312.127 323.969 316.882 321.799 321.487 319.257C323.539 318.147 325.632 317.105 327.736 316.084C337.036 311.738 337.036 311.738 342.527 303.777C342.703 303.153 342.878 302.529 343.06 301.886C343.78 300.215 343.78 300.215 344.514 298.511C344.384 297.644 344.253 296.778 344.118 295.885C341.522 295.018 339.002 294.668 336.278 294.303C332.973 293.799 330.816 292.921 328.248 290.885C327.587 288.884 327.587 288.884 327.19 286.884C326.691 286.432 326.192 285.98 325.678 285.515C323.767 283.639 323.221 282.263 322.429 279.785C322.169 278.988 321.909 278.191 321.641 277.37C321.377 276.528 321.114 275.687 320.842 274.819C320.565 273.959 320.288 273.1 320.002 272.214C319.458 270.521 318.917 268.827 318.381 267.131C317.809 265.324 317.22 263.521 316.627 261.719C315.412 258.023 314.344 254.354 313.503 250.565C312.391 245.569 310.746 240.75 309.101 235.891C308.147 232.875 308.147 232.875 307.795 230.066C307.562 229.342 307.329 228.619 307.089 227.874C304.89 226.903 304.89 226.903 302.195 226.561C295.713 224.955 292.587 222.232 289.103 216.872C287.311 213.26 285.709 209.667 284.193 205.944C282.87 203.115 281.863 201.933 279.581 199.869C279.052 196.368 279.052 196.368 279.581 192.868C281.565 191.18 281.565 191.18 284.871 189.867C286.101 189.376 286.101 189.376 287.355 188.875C294.873 185.938 294.873 185.938 298.943 185.437C299.885 184.919 300.828 184.4 301.799 183.866C302.596 180.177 302.289 176.543 302.063 172.802C301.76 166.181 301.677 160.333 303.444 153.896C304.161 150.797 303.956 147.825 303.782 144.672C303.647 137.277 303.647 137.277 305.898 133.983C306.64 133.281 307.382 132.58 308.147 131.857C308.845 131.857 309.543 131.857 310.263 131.857C309.804 130.805 309.804 130.805 309.337 129.732C306.858 123.743 308.394 119.259 310.977 113.577C318.743 98.4839 329.781 91.7461 346.048 85.7481C362.455 81.3599 378.513 80.5261 394.9 84.8495Z" fill="#C4C4C4"/>
<path fill-rule="evenodd" clip-rule="evenodd" d="M312.285 453.534H304.123V477.62L285.627 454.458C284.958 453.536 284.131 452.742 283.185 452.114C283.004 452.005 282.816 451.908 282.623 451.823C282.674 452.859 283.088 453.966 282.813 454.936C282.779 455.09 282.727 455.239 282.66 455.382C282.293 456.151 281.432 456.966 280.916 457.538C279.958 458.598 279.986 457.004 279.558 456.46C279.372 456.226 279.242 456.329 279.153 456.652C278.842 458.059 279.246 462.747 279.837 462.921C280.274 463.062 280.302 463.488 280.153 464.056C279.721 465.659 277.363 468.496 277.172 469.072C276.819 470.31 278.102 470.671 277.786 471.567C277.596 471.984 277.295 472.339 276.916 472.594C276.824 472.669 276.754 472.768 276.712 472.88C276.664 473.251 276.752 473.628 276.96 473.939C277.168 474.25 277.482 474.473 277.842 474.567C278.06 474.605 278.893 476.649 278.874 476.855C278.877 476.871 278.877 476.887 278.874 476.902C278.874 477.109 276.921 478.89 276.437 479.786V480.222C276.842 480.419 278.251 481.16 278.046 481.277C278.046 481.319 278.009 481.343 277.902 481.343C277.867 481.34 277.833 481.35 277.805 481.371C277.805 481.535 278.27 481.938 278.502 481.938C278.823 481.938 278.702 484.343 279.084 484.353C279.581 484.353 280.088 484.934 280.311 485.37C280.469 485.684 280.483 485.839 280.432 485.872C280.381 486.022 280.093 485.872 279.995 485.994C279.59 487.4 282.409 487.124 283.223 487.4C284.204 487.724 283.199 489.604 283.544 490.213C283.981 490.959 284.316 491.114 284.627 490.729C284.698 490.635 284.761 490.535 284.813 490.429C284.836 490.382 284.864 490.338 284.897 490.298C285.129 489.974 285.315 490.499 285.432 491.104C285.79 489.888 285.947 488.621 285.897 487.353L285.771 468.167L298.221 483.377C298.244 482.111 298.923 480.48 299.616 479.894C300.081 479.491 301.393 478.515 301.658 479.561C301.876 480.428 302.816 480.03 302.816 480.616C302.816 480.846 303.779 480.916 303.974 480.86C304.169 480.803 304.286 479.617 304.472 479.481C304.774 479.261 306.611 478.759 306.709 479.317C306.806 479.875 310.229 479.702 310.355 480.78C310.355 480.808 311.848 482.247 311.848 482.322C311.848 482.397 312.513 482.791 312.675 483.134C312.759 483.302 313.182 483.316 313.698 483.284V456.558C313.447 455.579 312.959 454.219 312.285 453.534Z" fill="#305D88"/>
<path fill-rule="evenodd" clip-rule="evenodd" d="M279.642 487.893C279.614 487.925 278.381 487.278 278.381 487.602C278.381 488.024 278.023 488.779 278.339 489.29C278.409 489.402 278.684 489.496 278.716 489.618C278.814 489.97 278.716 490.556 278.8 490.964C278.82 491 278.839 491.038 278.856 491.076C279.014 491.461 280.279 492.802 280.586 492.455V492.422C280.758 492.028 280.795 490.101 280.916 489.993C280.914 489.984 280.914 489.974 280.916 489.965C280.994 489.928 281.06 489.869 281.107 489.796C281.618 489.004 280.581 486.739 279.642 487.893Z" fill="#305D88"/>
<path fill-rule="evenodd" clip-rule="evenodd" d="M277.205 484.662C276.461 484.943 275.233 485.131 275.344 486.022C275.344 486.144 275.661 485.956 275.721 486.064C276.023 486.594 275.754 487.878 277.023 487.471C278.293 487.063 278.074 484.967 278.074 484.132C278.088 483.968 277.242 484.648 277.205 484.662Z" fill="#305D88"/>
<path fill-rule="evenodd" clip-rule="evenodd" d="M315.187 467.169C316.554 462.569 316.065 455.171 313.257 451.26C310.578 447.509 306.783 447.186 302.658 447.978V473.269L292.459 460.567V447.96C292.459 445.901 292.296 444.415 291.994 443.51C291.638 442.552 291.072 441.688 290.338 440.983H305.188C311.959 440.983 317.23 442.74 321 446.253L321.367 446.604C321.403 446.897 321.493 447.18 321.632 447.439C321.893 447.908 322.79 447.978 321.893 449.024C320.786 450.309 320.893 450.81 322.074 452.104C322.111 452.142 319.944 454.228 320.679 454.702C321.414 455.175 320.498 455.443 321.26 456.652C321.614 457.21 320.637 457.745 320.432 458.275C319.73 460.098 320.939 461.861 320.6 463.39C320.577 463.502 319.34 467.61 320.019 467.61C320.698 467.61 320.074 470.179 319.851 470.531C319.209 471.548 317.777 474.019 319.27 474.75C320.353 475.28 318.186 477.001 318.028 477.592C317.958 477.849 317.879 478.131 317.814 478.422C316.993 478.89 316.128 479.278 315.233 479.58L315.187 467.169Z" fill="#5A833A"/>
<path fill-rule="evenodd" clip-rule="evenodd" d="M283.441 424.995H287.343C289.182 424.995 290.533 424.526 291.398 423.588C292.263 422.65 292.691 421.202 292.691 419.223C292.691 417.413 292.226 416.035 291.329 415.088C290.431 414.14 289.101 413.681 287.404 413.681H283.441V424.995ZM275.47 398.616C274.833 397.655 274.451 398.368 273.735 398.616C273.461 398.715 273.735 399.929 273.303 399.995C272.87 400.061 272.014 400.933 271.842 401.214C271.615 401.58 271.88 402.264 271.624 402.592C270.908 403.53 271.987 404.712 272.763 403.441C273.079 402.925 272.493 402.841 272.438 402.592C272.191 401.505 272.875 401.261 273.465 400.679C274.056 400.098 275.065 400.717 275.326 400.361C275.509 400.112 275.619 399.817 275.644 399.509C275.67 399.201 275.609 398.892 275.47 398.616ZM290.631 406.015H291.733C295.913 406.015 299.122 407.062 301.36 409.156C303.607 411.257 304.727 414.234 304.727 418.098C304.727 421.477 303.904 424.08 302.258 425.909C300.611 427.737 298.255 428.646 295.189 428.633V429.064C296.77 428.997 298.338 429.389 299.705 430.194C300.891 430.982 301.762 432.168 302.165 433.542L304.025 439.478H292.05L291.119 436.388C290.851 435.277 290.225 434.288 289.338 433.575C288.396 432.919 287.268 432.59 286.125 432.637H283.441V442.539H287.701V450.557H277.739C277.274 449.436 277.353 447.383 277.544 446.337C277.566 446.229 277.594 446.123 277.628 446.018C277.735 445.7 280.111 444.176 280.469 444.115C280.688 444.082 280.814 443.843 280.879 443.477C281.204 442.033 280.316 438.17 280.297 438.17C279.944 438.17 279.981 437.401 280.097 436.707C280.151 436.388 280.232 436.074 280.339 435.769C280.482 435.472 280.582 435.156 280.637 434.831C280.744 434.297 280.66 433.795 280.102 433.612C279.79 433.509 279.637 432.042 279.2 431.835C279.111 431.793 276.874 431.76 276.823 431.165C276.931 430.967 277.092 430.805 277.288 430.696C277.489 430.491 277.602 430.215 277.605 429.927C277.805 428.783 277.516 426.476 276.926 425.515H276.814C276.728 425.386 276.604 425.286 276.461 425.229C276.433 425.229 276.484 425.126 276.461 425.102C275.8 424.451 274.837 425.056 275.493 423.644C275.786 423.011 274.703 420.653 274.317 420.723C273.019 420.958 272.554 421.919 271.424 421.619C270.619 421.403 272.535 419.41 270.908 419.528C270.587 419.528 270.359 421.192 270.196 421.431C269.238 422.838 268.55 419.556 269.354 419.34C270.517 419.007 271.345 417.755 270.773 416.686C270.308 415.781 269.047 416.466 269.378 414.267C269.378 414.112 272.856 408.003 271.703 407.862C271.24 407.383 270.808 406.874 270.41 406.339C269.782 403.863 271.703 404.402 271.703 404.688C271.703 405.485 271.963 406.596 271.963 407.225C271.963 407.853 275.158 409.733 275.582 409.888C276.367 410.179 277.642 409.888 278.372 410.207C279.404 410.647 278.837 410.952 280.116 410.779C282.906 410.39 282.73 410.91 284.185 409.128C285.529 407.422 288.636 407.319 290.631 406.015Z" fill="#F05123"/>
<path fill-rule="evenodd" clip-rule="evenodd" d="M302.751 427.512C303.326 428.124 304.024 428.604 304.797 428.922C305.571 429.24 306.404 429.387 307.239 429.355C308.922 429.355 310.224 428.886 311.141 427.948C311.574 427.516 311.918 427 312.152 426.432C312.386 425.863 312.506 425.254 312.503 424.638C312.503 423.44 312.035 422.29 311.201 421.436C310.429 420.601 308.759 419.809 306.192 419.059C306.192 418.746 306.192 418.424 306.192 418.093C306.192 414.286 305.178 410.69 302.351 408.05C299.909 405.767 296.77 404.815 293.515 404.571L291.989 404.519C292.022 404.454 292.054 404.388 292.082 404.323C292.195 404.102 292.376 403.924 292.598 403.816C293.389 403.427 292.64 400.337 294.212 401.598C294.677 401.959 297.296 399.099 298.021 398.743C298.37 398.574 299.049 397.36 299.379 397.336C300.732 397.285 301.463 397.594 301.9 396.066C302.044 395.555 304.462 395.944 302.867 393.782C302.537 393.314 302.625 391.471 303.644 392.132C304.662 392.793 304.965 390.332 305.774 392.324C305.95 392.756 306.927 392.99 307.067 393.21C307.206 393.431 306.955 393.679 307.067 393.843C307.876 395.166 309.913 392.756 310.941 395.109C311.268 395.424 311.613 395.719 311.973 395.996C312.215 396.324 312.029 397.787 312.294 397.96C313.108 398.495 312.94 396.211 313.522 396.183C315.475 396.075 315.182 394.636 315.522 396.882C315.522 396.98 316.884 397.618 316.749 398.405C316.666 398.874 314.591 398.405 315.07 401.261C315.098 401.43 316.117 400.239 316.428 401.58C316.428 401.659 318.321 401.214 318.754 401.326C319.084 401.411 320.479 402.799 319.219 402.658C319.014 402.658 318.991 401.392 317.926 402.086C316.861 402.78 317.619 403.23 317.279 404.177C316.847 405.396 315.056 404.529 314.824 405.063C314.755 405.211 314.711 405.37 314.694 405.532L311.652 406.043L311.452 404.426C311.12 402.797 310.547 401.58 309.731 400.773C308.801 399.836 307.476 399.367 305.811 399.367C304.416 399.367 303.397 399.709 302.704 400.417C302.366 400.749 302.099 401.147 301.92 401.588C301.741 402.028 301.653 402.501 301.663 402.977C301.667 403.346 301.745 403.711 301.892 404.049C302.039 404.387 302.252 404.692 302.518 404.946C303.081 405.556 304.379 406.114 306.49 406.639C311.655 407.977 315.354 409.333 317.586 410.708C319.668 411.92 321.362 413.708 322.465 415.861C322.632 416.196 322.787 416.535 322.93 416.879C322.812 417.201 322.711 417.53 322.628 417.863C322.442 418.585 322.507 419.237 323.735 419.659C323.914 420.652 324.003 421.66 324 422.669C324.012 424.783 323.63 426.881 322.874 428.853C322.77 428.964 322.66 429.069 322.544 429.168C321.653 429.831 320.918 430.685 320.391 431.667C319.823 432.679 319.112 433.706 318.842 434.733C318.053 435.416 317.188 436.006 316.266 436.491C313.835 437.776 310.765 438.418 307.057 438.418C306.437 438.418 305.826 438.404 305.225 438.376L303.593 433.111C303.107 431.425 302.049 429.966 300.602 428.989C301.384 428.603 302.108 428.105 302.751 427.512ZM317.061 399.357C315.694 399.357 317.098 399.746 317.224 399.625C317.349 399.503 317.154 399.357 317.061 399.357ZM317.819 398.513C316.424 398.513 318.084 399.601 318.284 399.31C318.433 399.142 318.019 398.513 317.819 398.513ZM312.35 392.831C312.313 393.182 311.996 393.173 312.406 393.571C313.029 394.186 311.689 394.472 313.001 394.95C313.875 395.273 313.982 394.045 313.54 394.045C313.317 394.045 314.336 392.024 313.485 391.921C313.057 391.87 312.885 392.343 312.554 392.292C312.015 392.202 312.294 389.624 310.657 391.232C310.159 391.701 309.829 393.506 310.387 393.782C310.652 393.914 311.638 394.833 311.685 394.101C311.703 394.078 312.387 392.474 312.35 392.831ZM309.48 391.766C309.387 391.297 308.578 391.152 308.29 391.396C307.332 392.198 309.941 393.74 309.536 392.404C309.42 392.024 309.522 391.982 309.48 391.766ZM311.341 389.375C311.317 389.422 310.536 389.23 310.527 389.267C310.457 389.685 308.625 388.986 308.522 389C308.341 389.028 308.476 389.324 308.578 389.37C309.345 389.746 307.648 390.496 308.959 390.749C309.592 390.871 309.076 390.074 309.499 389.844C309.838 389.661 311.271 389.844 311.359 389.633C311.341 389.605 311.382 389.281 311.322 389.38L311.341 389.375Z" fill="#F89A2F"/>
<path d="M302.588 485.497C302.134 485.13 301.615 484.853 301.058 484.681C300.558 484.519 300.038 484.432 299.514 484.423H293.11C292.35 484.398 291.595 484.559 290.91 484.892C290.367 485.17 289.886 485.556 289.495 486.026C289.104 486.497 288.812 487.042 288.636 487.63C288.476 488.133 288.39 488.658 288.38 489.187V494.208C288.355 494.974 288.515 495.735 288.845 496.426C289.121 496.972 289.503 497.457 289.969 497.851C290.435 498.245 290.975 498.54 291.557 498.719C292.058 498.88 292.579 498.967 293.105 498.976H299.351V495.882H293.138C292.695 495.893 292.265 495.736 291.933 495.441C291.766 495.285 291.634 495.094 291.548 494.88C291.462 494.667 291.424 494.438 291.436 494.208V489.215C291.424 488.769 291.58 488.335 291.873 488C292.03 487.831 292.222 487.698 292.436 487.611C292.65 487.525 292.88 487.486 293.11 487.499H299.514C299.947 487.49 300.368 487.647 300.69 487.939C300.857 488.094 300.987 488.283 301.073 488.493C301.159 488.704 301.198 488.931 301.188 489.158C301.201 489.605 301.045 490.039 300.751 490.373C300.593 490.542 300.401 490.674 300.187 490.761C299.973 490.847 299.744 490.886 299.514 490.874H293.268V493.955H299.514C300.274 493.979 301.028 493.818 301.714 493.486C302.279 493.197 302.778 492.791 303.179 492.295C303.543 491.837 303.817 491.314 303.988 490.753C304.148 490.249 304.234 489.725 304.244 489.196C304.269 488.43 304.109 487.669 303.779 486.978C303.489 486.406 303.083 485.901 302.588 485.497Z" fill="#305D88"/>
<path d="M322.204 488.755C322.025 488.166 321.757 487.607 321.409 487.1C321.092 486.64 320.708 486.231 320.27 485.886C319.85 485.557 319.394 485.277 318.912 485.051C318.451 484.839 317.967 484.682 317.47 484.582C317.011 484.487 316.544 484.438 316.075 484.437H308.076C307.859 484.435 307.644 484.476 307.443 484.559C307.248 484.64 307.069 484.758 306.918 484.906C306.769 485.051 306.65 485.225 306.569 485.417C306.485 485.617 306.442 485.833 306.443 486.05V498.995H309.699V487.696H316.07C316.499 487.691 316.924 487.766 317.326 487.916C317.704 488.061 318.049 488.283 318.34 488.568C318.633 488.854 318.865 489.197 319.023 489.576C319.195 489.995 319.281 490.445 319.275 490.898V499H322.53V490.879C322.529 490.159 322.419 489.442 322.204 488.755Z" fill="#305D88"/>
<path d="M277.251 494.217C276.642 494.234 276.051 494.008 275.605 493.589C275.383 493.369 275.21 493.104 275.096 492.811C274.982 492.519 274.931 492.206 274.944 491.892V451.809H270.252V491.892C270.219 493.025 270.453 494.15 270.935 495.174C271.356 496.018 271.95 496.761 272.679 497.354C273.353 497.9 274.123 498.31 274.949 498.564C275.695 498.798 276.47 498.923 277.251 498.934H285.897V494.217H277.251Z" fill="url(#paint0_linear_162_6)"/>
<defs>
<linearGradient id="paint0_linear_162_6" x1="278.074" y1="498.953" x2="278.074" y2="451.809" gradientUnits="userSpaceOnUse">
<stop offset="0.42" stop-color="#305D88"/>
<stop offset="1" stop-color="#2484C6" stop-opacity="0"/>
</linearGradient>
</defs>
</svg>
