<svg width="536" height="526" viewBox="0 0 536 526" fill="none" xmlns="http://www.w3.org/2000/svg">
<g filter="url(#filter0_d_8_51)">
<g clip-path="url(#clip0_8_51)">
<rect x="12.6952" y="6.04004" width="510.4" height="501.6" rx="27.5" fill="#131313"/>
<path d="M12.6952 33.54C12.6952 18.3522 25.0074 6.04004 40.1952 6.04004L495.595 6.04004C510.783 6.04004 523.095 18.3522 523.095 33.54V55.54L12.6952 55.54L12.6952 33.54Z" fill="#2E2E2E"/>
<path d="M425.195 30.79C425.195 38.384 419.039 44.54 411.445 44.54C403.851 44.54 397.695 38.384 397.695 30.79C397.695 23.1961 403.851 17.04 411.445 17.04C419.039 17.04 425.195 23.1961 425.195 30.79Z" fill="#08FF00"/>
<circle cx="447.745" cy="30.79" r="13.75" fill="#E6FF00"/>
<circle cx="484.045" cy="30.79" r="13.75" fill="#FF0000"/>
<path d="M42.8256 143.84V129.32H45.1488V132.092H45.7032L44.9376 133.808C44.9376 132.242 45.272 131.062 45.9408 130.27C46.6272 129.461 47.6392 129.056 48.9768 129.056C50.508 129.056 51.7224 129.54 52.62 130.508C53.5352 131.458 53.9928 132.752 53.9928 134.389V135.26H51.6168V134.6C51.6168 133.456 51.3352 132.585 50.772 131.986C50.2264 131.37 49.4432 131.062 48.4224 131.062C47.4192 131.062 46.6272 131.37 46.0464 131.986C45.4832 132.602 45.2016 133.474 45.2016 134.6V143.84H42.8256ZM63.6449 144.051C62.4833 144.051 61.4801 143.831 60.6353 143.391C59.7905 142.951 59.1305 142.318 58.6553 141.49C58.1977 140.646 57.9689 139.651 57.9689 138.507V134.653C57.9689 133.491 58.1977 132.497 58.6553 131.67C59.1305 130.842 59.7905 130.209 60.6353 129.769C61.4801 129.329 62.4833 129.109 63.6449 129.109C64.8065 129.109 65.8097 129.329 66.6545 129.769C67.4993 130.209 68.1505 130.842 68.6081 131.67C69.0833 132.497 69.3209 133.482 69.3209 134.626V138.507C69.3209 139.651 69.0833 140.646 68.6081 141.49C68.1505 142.318 67.4993 142.951 66.6545 143.391C65.8097 143.831 64.8065 144.051 63.6449 144.051ZM63.6449 141.939C64.6833 141.939 65.4929 141.649 66.0737 141.068C66.6545 140.487 66.9449 139.634 66.9449 138.507V134.653C66.9449 133.526 66.6545 132.673 66.0737 132.092C65.4929 131.511 64.6833 131.221 63.6449 131.221C62.6241 131.221 61.8145 131.511 61.2161 132.092C60.6353 132.673 60.3449 133.526 60.3449 134.653V138.507C60.3449 139.634 60.6353 140.487 61.2161 141.068C61.8145 141.649 62.6241 141.939 63.6449 141.939ZM79.4746 144.051C78.313 144.051 77.3098 143.831 76.465 143.391C75.6202 142.951 74.9602 142.318 74.485 141.49C74.0274 140.646 73.7986 139.651 73.7986 138.507V134.653C73.7986 133.491 74.0274 132.497 74.485 131.67C74.9602 130.842 75.6202 130.209 76.465 129.769C77.3098 129.329 78.313 129.109 79.4746 129.109C80.6362 129.109 81.6394 129.329 82.4842 129.769C83.329 130.209 83.9802 130.842 84.4378 131.67C84.913 132.497 85.1506 133.482 85.1506 134.626V138.507C85.1506 139.651 84.913 140.646 84.4378 141.49C83.9802 142.318 83.329 142.951 82.4842 143.391C81.6394 143.831 80.6362 144.051 79.4746 144.051ZM79.4746 141.939C80.513 141.939 81.3226 141.649 81.9034 141.068C82.4842 140.487 82.7746 139.634 82.7746 138.507V134.653C82.7746 133.526 82.4842 132.673 81.9034 132.092C81.3226 131.511 80.513 131.221 79.4746 131.221C78.4538 131.221 77.6442 131.511 77.0458 132.092C76.465 132.673 76.1746 133.526 76.1746 134.653V138.507C76.1746 139.634 76.465 140.487 77.0458 141.068C77.6442 141.649 78.4538 141.939 79.4746 141.939ZM96.8883 143.84C95.6387 143.84 94.6619 143.506 93.9579 142.837C93.2715 142.168 92.9283 141.226 92.9283 140.012V131.485H88.8363V129.32H92.9283V125.228H95.3043V129.32H101.112V131.485H95.3043V140.012C95.3043 141.121 95.8323 141.675 96.8883 141.675H100.848V143.84H96.8883ZM111.794 148.592C110.298 148.592 108.996 148.275 107.887 147.642C106.778 147.026 105.916 146.137 105.3 144.975C104.701 143.831 104.402 142.485 104.402 140.936V131.96C104.402 130.376 104.684 129.012 105.247 127.868C105.828 126.724 106.646 125.844 107.702 125.228C108.776 124.612 110.052 124.304 111.53 124.304C112.868 124.304 114.02 124.568 114.988 125.096C115.956 125.606 116.696 126.346 117.206 127.314C117.734 128.282 117.998 129.434 117.998 130.772V142.124H116.124V140.672H115.384L115.886 140.144C115.886 140.813 115.631 141.358 115.12 141.781C114.61 142.186 113.932 142.388 113.088 142.388C111.944 142.388 111.064 142.045 110.448 141.358C109.849 140.654 109.55 139.634 109.55 138.296V135.128C109.55 133.79 109.849 132.778 110.448 132.092C111.064 131.388 111.944 131.036 113.088 131.036C113.932 131.036 114.61 131.247 115.12 131.67C115.631 132.074 115.886 132.62 115.886 133.306L115.516 132.752H116.15L115.886 130.904V130.772C115.886 129.769 115.719 128.924 115.384 128.238C115.05 127.551 114.557 127.032 113.906 126.68C113.272 126.328 112.48 126.152 111.53 126.152C109.946 126.152 108.714 126.662 107.834 127.683C106.954 128.704 106.514 130.13 106.514 131.96V140.936C106.514 142.696 106.98 144.078 107.913 145.081C108.864 146.102 110.157 146.612 111.794 146.612H113.642V148.592H111.794ZM113.774 140.725C114.496 140.725 115.024 140.505 115.358 140.065C115.71 139.625 115.886 138.947 115.886 138.032V135.102C115.886 134.274 115.71 133.667 115.358 133.28C115.024 132.893 114.496 132.699 113.774 132.699C113.07 132.699 112.542 132.902 112.19 133.306C111.838 133.694 111.662 134.301 111.662 135.128V138.296C111.662 139.123 111.838 139.739 112.19 140.144C112.542 140.531 113.07 140.725 113.774 140.725ZM125.696 144.104C124.165 144.104 122.96 143.717 122.08 142.942C121.2 142.15 120.76 141.086 120.76 139.748C120.76 138.393 121.2 137.328 122.08 136.554C122.96 135.779 124.148 135.392 125.644 135.392H130.132V133.94C130.132 133.042 129.859 132.356 129.313 131.881C128.785 131.388 128.028 131.142 127.043 131.142C126.18 131.142 125.459 131.326 124.878 131.696C124.297 132.048 123.963 132.532 123.875 133.148H121.499C121.657 131.898 122.247 130.904 123.268 130.165C124.288 129.426 125.564 129.056 127.096 129.056C128.768 129.056 130.088 129.487 131.056 130.35C132.024 131.212 132.508 132.382 132.508 133.861V143.84H130.184V141.068H129.788L130.184 140.672C130.184 141.728 129.771 142.564 128.944 143.18C128.134 143.796 127.052 144.104 125.696 144.104ZM126.277 142.23C127.404 142.23 128.328 141.948 129.049 141.385C129.771 140.822 130.132 140.1 130.132 139.22V137.161H125.696C124.904 137.161 124.28 137.381 123.822 137.821C123.364 138.261 123.136 138.859 123.136 139.616C123.136 140.426 123.408 141.068 123.954 141.543C124.517 142.001 125.292 142.23 126.277 142.23ZM144.773 143.84C143.929 143.84 143.189 143.673 142.556 143.338C141.922 143.004 141.429 142.529 141.077 141.913C140.725 141.297 140.549 140.575 140.549 139.748V126.733H135.665V124.568H142.925V139.748C142.925 140.346 143.093 140.822 143.427 141.174C143.761 141.508 144.21 141.675 144.773 141.675H149.393V143.84H144.773ZM158.623 144.104C157.479 144.104 156.476 143.875 155.613 143.418C154.769 142.96 154.109 142.318 153.633 141.49C153.176 140.646 152.947 139.669 152.947 138.56V134.6C152.947 133.474 153.176 132.497 153.633 131.67C154.109 130.842 154.769 130.2 155.613 129.742C156.476 129.285 157.479 129.056 158.623 129.056C159.767 129.056 160.761 129.285 161.606 129.742C162.469 130.2 163.129 130.842 163.586 131.67C164.061 132.497 164.299 133.474 164.299 134.6V137.161H155.27V138.56C155.27 139.704 155.561 140.584 156.141 141.2C156.722 141.798 157.549 142.098 158.623 142.098C159.538 142.098 160.277 141.939 160.841 141.622C161.404 141.288 161.747 140.795 161.87 140.144H164.246C164.088 141.358 163.489 142.326 162.451 143.048C161.43 143.752 160.154 144.104 158.623 144.104ZM161.976 135.577V134.6C161.976 133.456 161.685 132.576 161.105 131.96C160.541 131.344 159.714 131.036 158.623 131.036C157.549 131.036 156.722 131.344 156.141 131.96C155.561 132.576 155.27 133.456 155.27 134.6V135.366H162.161L161.976 135.577ZM167.853 143.84L173.001 136.369L168.17 129.32H170.968L173.846 133.808C173.969 134.002 174.083 134.213 174.189 134.442C174.312 134.67 174.409 134.855 174.479 134.996C174.532 134.855 174.611 134.67 174.717 134.442C174.84 134.213 174.963 134.002 175.086 133.808L177.99 129.32H180.762L175.931 136.395L181.053 143.84H178.254L175.139 139.088C175.016 138.894 174.893 138.674 174.77 138.428C174.664 138.164 174.567 137.953 174.479 137.794C174.409 137.953 174.303 138.164 174.162 138.428C174.039 138.674 173.907 138.894 173.766 139.088L170.625 143.84H167.853ZM190.282 133.016C189.631 133.016 189.103 132.84 188.698 132.488C188.294 132.118 188.091 131.634 188.091 131.036C188.091 130.438 188.294 129.962 188.698 129.61C189.103 129.241 189.631 129.056 190.282 129.056C190.951 129.056 191.479 129.241 191.866 129.61C192.271 129.962 192.474 130.438 192.474 131.036C192.474 131.634 192.271 132.118 191.866 132.488C191.479 132.84 190.951 133.016 190.282 133.016ZM190.282 144.104C189.631 144.104 189.103 143.928 188.698 143.576C188.294 143.206 188.091 142.722 188.091 142.124C188.091 141.526 188.294 141.05 188.698 140.698C189.103 140.329 189.631 140.144 190.282 140.144C190.951 140.144 191.479 140.329 191.866 140.698C192.271 141.05 192.474 141.526 192.474 142.124C192.474 142.722 192.271 143.206 191.866 143.576C191.479 143.928 190.951 144.104 190.282 144.104Z" fill="#F31717"/>
<path d="M199.908 137.108V135.26C199.908 134.222 200.225 133.394 200.858 132.778C201.492 132.145 202.319 131.828 203.34 131.828C203.991 131.828 204.546 131.942 205.003 132.171C205.461 132.4 205.848 132.69 206.165 133.042C206.499 133.377 206.798 133.72 207.062 134.072C207.326 134.406 207.599 134.688 207.881 134.917C208.162 135.146 208.479 135.26 208.831 135.26C209.236 135.26 209.544 135.137 209.755 134.89C209.966 134.644 210.072 134.283 210.072 133.808V131.96H212.316V133.808C212.316 134.829 211.999 135.656 211.366 136.29C210.75 136.923 209.922 137.24 208.884 137.24C208.233 137.24 207.678 137.126 207.221 136.897C206.763 136.668 206.367 136.386 206.033 136.052C205.716 135.7 205.426 135.357 205.162 135.022C204.898 134.67 204.625 134.38 204.343 134.151C204.062 133.922 203.745 133.808 203.393 133.808C203.006 133.808 202.698 133.931 202.469 134.178C202.258 134.424 202.152 134.785 202.152 135.26V137.108H199.908ZM216.213 143.84L217.19 138.56H214.946V136.844H217.507L218.457 131.564H215.87V129.848H218.774L219.751 124.568H221.599L220.622 129.848H224.846L225.823 124.568H227.671L226.694 129.848H228.938V131.564H226.377L225.427 136.844H228.014V138.56H225.11L224.133 143.84H222.285L223.262 138.56H219.038L218.061 143.84H216.213ZM219.355 136.844H223.579L224.529 131.564H220.305L219.355 136.844ZM248.11 148.592V129.32H250.486V132.092H250.961L250.486 132.646C250.486 131.538 250.847 130.666 251.568 130.033C252.308 129.382 253.276 129.056 254.472 129.056C255.933 129.056 257.095 129.54 257.957 130.508C258.837 131.458 259.277 132.77 259.277 134.442V138.692C259.277 139.801 259.075 140.76 258.67 141.57C258.283 142.379 257.728 143.004 257.007 143.444C256.303 143.884 255.458 144.104 254.472 144.104C253.293 144.104 252.334 143.778 251.595 143.127C250.856 142.476 250.486 141.605 250.486 140.514L250.961 141.068H250.433L250.486 144.368V148.592H248.11ZM253.68 142.045C254.684 142.045 255.467 141.746 256.03 141.147C256.611 140.549 256.901 139.686 256.901 138.56V134.6C256.901 133.474 256.611 132.611 256.03 132.013C255.467 131.414 254.684 131.115 253.68 131.115C252.712 131.115 251.938 131.423 251.357 132.039C250.776 132.655 250.486 133.509 250.486 134.6V138.56C250.486 139.651 250.776 140.505 251.357 141.121C251.938 141.737 252.712 142.045 253.68 142.045ZM263.755 143.84V141.675H268.903V131.485H264.415V129.32H271.279V141.675H276.163V143.84H263.755ZM269.827 126.706C269.246 126.706 268.788 126.557 268.454 126.258C268.12 125.958 267.952 125.554 267.952 125.043C267.952 124.515 268.12 124.102 268.454 123.802C268.788 123.486 269.246 123.327 269.827 123.327C270.408 123.327 270.865 123.486 271.2 123.802C271.534 124.102 271.701 124.515 271.701 125.043C271.701 125.554 271.534 125.958 271.2 126.258C270.865 126.557 270.408 126.706 269.827 126.706ZM279.769 143.84V129.32H282.145V132.092H282.647L282.145 132.646C282.145 131.502 282.489 130.622 283.175 130.006C283.861 129.373 284.812 129.056 286.026 129.056C287.487 129.056 288.649 129.505 289.511 130.402C290.373 131.3 290.805 132.523 290.805 134.072V143.84H288.429V134.336C288.429 133.298 288.147 132.506 287.584 131.96C287.038 131.397 286.29 131.115 285.34 131.115C284.354 131.115 283.571 131.414 282.99 132.013C282.427 132.611 282.145 133.474 282.145 134.6V143.84H279.769ZM297.421 148.592V146.427H302.041C302.78 146.427 303.317 146.26 303.651 145.926C304.003 145.591 304.179 145.072 304.179 144.368V142.52L304.232 139.88H303.757L304.205 139.484C304.205 140.54 303.853 141.376 303.149 141.992C302.445 142.608 301.504 142.916 300.325 142.916C298.829 142.916 297.649 142.432 296.787 141.464C295.925 140.478 295.493 139.158 295.493 137.504V134.442C295.493 132.787 295.925 131.476 296.787 130.508C297.649 129.54 298.829 129.056 300.325 129.056C301.504 129.056 302.445 129.364 303.149 129.98C303.853 130.596 304.205 131.432 304.205 132.488L303.757 132.092H304.205V129.32H306.555V144.368C306.555 145.67 306.15 146.7 305.341 147.457C304.549 148.214 303.44 148.592 302.014 148.592H297.421ZM301.037 140.857C302.023 140.857 302.797 140.549 303.361 139.933C303.924 139.317 304.205 138.463 304.205 137.372V134.6C304.205 133.509 303.924 132.655 303.361 132.039C302.797 131.423 302.023 131.115 301.037 131.115C300.034 131.115 299.251 131.414 298.688 132.013C298.142 132.611 297.869 133.474 297.869 134.6V137.372C297.869 138.498 298.142 139.361 298.688 139.959C299.251 140.558 300.034 140.857 301.037 140.857Z" fill="white"/>
</g>
<rect x="14.3452" y="7.69004" width="507.1" height="498.3" rx="25.85" stroke="#2E2E2E" stroke-width="3.3"/>
</g>
<defs>
<filter id="filter0_d_8_51" x="0.69519" y="0.0400391" width="534.4" height="525.6" filterUnits="userSpaceOnUse" color-interpolation-filters="sRGB">
<feFlood flood-opacity="0" result="BackgroundImageFix"/>
<feColorMatrix in="SourceAlpha" type="matrix" values="0 0 0 0 0 0 0 0 0 0 0 0 0 0 0 0 0 0 127 0" result="hardAlpha"/>
<feMorphology radius="6" operator="dilate" in="SourceAlpha" result="effect1_dropShadow_8_51"/>
<feOffset dy="6"/>
<feGaussianBlur stdDeviation="3"/>
<feComposite in2="hardAlpha" operator="out"/>
<feColorMatrix type="matrix" values="0 0 0 0 0 0 0 0 0 0 0 0 0 0 0 0 0 0 0.25 0"/>
<feBlend mode="normal" in2="BackgroundImageFix" result="effect1_dropShadow_8_51"/>
<feBlend mode="normal" in="SourceGraphic" in2="effect1_dropShadow_8_51" result="shape"/>
</filter>
<clipPath id="clip0_8_51">
<rect x="12.6952" y="6.04004" width="510.4" height="501.6" rx="27.5" fill="white"/>
</clipPath>
</defs>
</svg>
