<svg width="536" height="526" viewBox="0 0 536 526" fill="none" xmlns="http://www.w3.org/2000/svg">
<g filter="url(#filter0_d_8_51)">
<g clip-path="url(#clip0_8_51)">
<rect x="12.6952" y="6.04004" width="510.4" height="501.6" rx="27.5" fill="#131313"/>
<path d="M12.6952 33.54C12.6952 18.3522 25.0074 6.04004 40.1952 6.04004L495.595 6.04004C510.783 6.04004 523.095 18.3522 523.095 33.54V55.54L12.6952 55.54L12.6952 33.54Z" fill="#2E2E2E"/>
<path d="M425.195 30.79C425.195 38.384 419.039 44.54 411.445 44.54C403.851 44.54 397.695 38.384 397.695 30.79C397.695 23.1961 403.851 17.04 411.445 17.04C419.039 17.04 425.195 23.1961 425.195 30.79Z" fill="#08FF00"/>
<circle cx="447.745" cy="30.79" r="13.75" fill="#E6FF00"/>
<circle cx="484.045" cy="30.79" r="13.75" fill="#FF0000"/>
<path d="M42.8256 143.84V129.32H45.1488V132.092H45.7032L44.9376 133.808C44.9376 132.242 45.272 131.062 45.9408 130.27C46.6272 129.461 47.6392 129.056 48.9768 129.056C50.508 129.056 51.7224 129.54 52.62 130.508C53.5352 131.458 53.9928 132.752 53.9928 134.389V135.26H51.6168V134.6C51.6168 133.456 51.3352 132.585 50.772 131.986C50.2264 131.37 49.4432 131.062 48.4224 131.062C47.4192 131.062 46.6272 131.37 46.0464 131.986C45.4832 132.602 45.2016 133.474 45.2016 134.6V143.84H42.8256ZM63.6449 144.051C62.4833 144.051 61.4801 143.831 60.6353 143.391C59.7905 142.951 59.1305 142.318 58.6553 141.49C58.1977 140.646 57.9689 139.651 57.9689 138.507V134.653C57.9689 133.491 58.1977 132.497 58.6553 131.67C59.1305 130.842 59.7905 130.209 60.6353 129.769C61.4801 129.329 62.4833 129.109 63.6449 129.109C64.8065 129.109 65.8097 129.329 66.6545 129.769C67.4993 130.209 68.1505 130.842 68.6081 131.67C69.0833 132.497 69.3209 133.482 69.3209 134.626V138.507C69.3209 139.651 69.0833 140.646 68.6081 141.49C68.1505 142.318 67.4993 142.951 66.6545 143.391C65.8097 143.831 64.8065 144.051 63.6449 144.051ZM63.6449 141.939C64.6833 141.939 65.4929 141.649 66.0737 141.068C66.6545 140.487 66.9449 139.634 66.9449 138.507V134.653C66.9449 133.526 66.6545 132.673 66.0737 132.092C65.4929 131.511 64.6833 131.221 63.6449 131.221C62.6241 131.221 61.8145 131.511 61.2161 132.092C60.6353 132.673 60.3449 133.526 60.3449 134.653V138.507C60.3449 139.634 60.6353 140.487 61.2161 141.068C61.8145 141.649 62.6241 141.939 63.6449 141.939ZM79.4746 144.051C78.313 144.051 77.3098 143.831 76.465 143.391C75.6202 142.951 74.9602 142.318 74.485 141.49C74.0274 140.646 73.7986 139.651 73.7986 138.507V134.653C73.7986 133.491 74.0274 132.497 74.485 131.67C74.9602 130.842 75.6202 130.209 76.465 129.769C77.3098 129.329 78.313 129.109 79.4746 129.109C80.6362 129.109 81.6394 129.329 82.4842 129.769C83.329 130.209 83.9802 130.842 84.4378 131.67C84.913 132.497 85.1506 133.482 85.1506 134.626V138.507C85.1506 139.651 84.913 140.646 84.4378 141.49C83.9802 142.318 83.329 142.951 82.4842 143.391C81.6394 143.831 80.6362 144.051 79.4746 144.051ZM79.4746 141.939C80.513 141.939 81.3226 141.649 81.9034 141.068C82.4842 140.487 82.7746 139.634 82.7746 138.507V134.653C82.7746 133.526 82.4842 132.673 81.9034 132.092C81.3226 131.511 80.513 131.221 79.4746 131.221C78.4538 131.221 77.6442 131.511 77.0458 132.092C76.465 132.673 76.1746 133.526 76.1746 134.653V138.507C76.1746 139.634 76.465 140.487 77.0458 141.068C77.6442 141.649 78.4538 141.939 79.4746 141.939ZM96.8883 143.84C95.6387 143.84 94.6619 143.506 93.9579 142.837C93.2715 142.168 92.9283 141.226 92.9283 140.012V131.485H88.8363V129.32H92.9283V125.228H95.3043V129.32H101.112V131.485H95.3043V140.012C95.3043 141.121 95.8323 141.675 96.8883 141.675H100.848V143.84H96.8883ZM111.794 148.592C110.298 148.592 108.996 148.275 107.887 147.642C106.778 147.026 105.916 146.137 105.3 144.975C104.701 143.831 104.402 142.485 104.402 140.936V131.96C104.402 130.376 104.684 129.012 105.247 127.868C105.828 126.724 106.646 125.844 107.702 125.228C108.776 124.612 110.052 124.304 111.53 124.304C112.868 124.304 114.02 124.568 114.988 125.096C115.956 125.606 116.696 126.346 117.206 127.314C117.734 128.282 117.998 129.434 117.998 130.772V142.124H116.124V140.672H115.384L115.886 140.144C115.886 140.813 115.631 141.358 115.12 141.781C114.61 142.186 113.932 142.388 113.088 142.388C111.944 142.388 111.064 142.045 110.448 141.358C109.849 140.654 109.55 139.634 109.55 138.296V135.128C109.55 133.79 109.849 132.778 110.448 132.092C111.064 131.388 111.944 131.036 113.088 131.036C113.932 131.036 114.61 131.247 115.12 131.67C115.631 132.074 115.886 132.62 115.886 133.306L115.516 132.752H116.15L115.886 130.904V130.772C115.886 129.769 115.719 128.924 115.384 128.238C115.05 127.551 114.557 127.032 113.906 126.68C113.272 126.328 112.48 126.152 111.53 126.152C109.946 126.152 108.714 126.662 107.834 127.683C106.954 128.704 106.514 130.13 106.514 131.96V140.936C106.514 142.696 106.98 144.078 107.913 145.081C108.864 146.102 110.157 146.612 111.794 146.612H113.642V148.592H111.794ZM113.774 140.725C114.496 140.725 115.024 140.505 115.358 140.065C115.71 139.625 115.886 138.947 115.886 138.032V135.102C115.886 134.274 115.71 133.667 115.358 133.28C115.024 132.893 114.496 132.699 113.774 132.699C113.07 132.699 112.542 132.902 112.19 133.306C111.838 133.694 111.662 134.301 111.662 135.128V138.296C111.662 139.123 111.838 139.739 112.19 140.144C112.542 140.531 113.07 140.725 113.774 140.725ZM125.696 144.104C124.165 144.104 122.96 143.717 122.08 142.942C121.2 142.15 120.76 141.086 120.76 139.748C120.76 138.393 121.2 137.328 122.08 136.554C122.96 135.779 124.148 135.392 125.644 135.392H130.132V133.94C130.132 133.042 129.859 132.356 129.313 131.881C128.785 131.388 128.028 131.142 127.043 131.142C126.18 131.142 125.459 131.326 124.878 131.696C124.297 132.048 123.963 132.532 123.875 133.148H121.499C121.657 131.898 122.247 130.904 123.268 130.165C124.288 129.426 125.564 129.056 127.096 129.056C128.768 129.056 130.088 129.487 131.056 130.35C132.024 131.212 132.508 132.382 132.508 133.861V143.84H130.184V141.068H129.788L130.184 140.672C130.184 141.728 129.771 142.564 128.944 143.18C128.134 143.796 127.052 144.104 125.696 144.104ZM126.277 142.23C127.404 142.23 128.328 141.948 129.049 141.385C129.771 140.822 130.132 140.1 130.132 139.22V137.161H125.696C124.904 137.161 124.28 137.381 123.822 137.821C123.364 138.261 123.136 138.859 123.136 139.616C123.136 140.426 123.408 141.068 123.954 141.543C124.517 142.001 125.292 142.23 126.277 142.23ZM144.773 143.84C143.929 143.84 143.189 143.673 142.556 143.338C141.922 143.004 141.429 142.529 141.077 141.913C140.725 141.297 140.549 140.575 140.549 139.748V126.733H135.665V124.568H142.925V139.748C142.925 140.346 143.093 140.822 143.427 141.174C143.761 141.508 144.21 141.675 144.773 141.675H149.393V143.84H144.773ZM158.623 144.104C157.479 144.104 156.476 143.875 155.613 143.418C154.769 142.96 154.109 142.318 153.633 141.49C153.176 140.646 152.947 139.669 152.947 138.56V134.6C152.947 133.474 153.176 132.497 153.633 131.67C154.109 130.842 154.769 130.2 155.613 129.742C156.476 129.285 157.479 129.056 158.623 129.056C159.767 129.056 160.761 129.285 161.606 129.742C162.469 130.2 163.129 130.842 163.586 131.67C164.061 132.497 164.299 133.474 164.299 134.6V137.161H155.27V138.56C155.27 139.704 155.561 140.584 156.141 141.2C156.722 141.798 157.549 142.098 158.623 142.098C159.538 142.098 160.277 141.939 160.841 141.622C161.404 141.288 161.747 140.795 161.87 140.144H164.246C164.088 141.358 163.489 142.326 162.451 143.048C161.43 143.752 160.154 144.104 158.623 144.104ZM161.976 135.577V134.6C161.976 133.456 161.685 132.576 161.105 131.96C160.541 131.344 159.714 131.036 158.623 131.036C157.549 131.036 156.722 131.344 156.141 131.96C155.561 132.576 155.27 133.456 155.27 134.6V135.366H162.161L161.976 135.577ZM167.853 143.84L173.001 136.369L168.17 129.32H170.968L173.846 133.808C173.969 134.002 174.083 134.213 174.189 134.442C174.312 134.67 174.409 134.855 174.479 134.996C174.532 134.855 174.611 134.67 174.717 134.442C174.84 134.213 174.963 134.002 175.086 133.808L177.99 129.32H180.762L175.931 136.395L181.053 143.84H178.254L175.139 139.088C175.016 138.894 174.893 138.674 174.77 138.428C174.664 138.164 174.567 137.953 174.479 137.794C174.409 137.953 174.303 138.164 174.162 138.428C174.039 138.674 173.907 138.894 173.766 139.088L170.625 143.84H167.853ZM190.282 133.016C189.631 133.016 189.103 132.84 188.698 132.488C188.294 132.118 188.091 131.634 188.091 131.036C188.091 130.438 188.294 129.962 188.698 129.61C189.103 129.241 189.631 129.056 190.282 129.056C190.951 129.056 191.479 129.241 191.866 129.61C192.271 129.962 192.474 130.438 192.474 131.036C192.474 131.634 192.271 132.118 191.866 132.488C191.479 132.84 190.951 133.016 190.282 133.016ZM190.282 144.104C189.631 144.104 189.103 143.928 188.698 143.576C188.294 143.206 188.091 142.722 188.091 142.124C188.091 141.526 188.294 141.05 188.698 140.698C189.103 140.329 189.631 140.144 190.282 140.144C190.951 140.144 191.479 140.329 191.866 140.698C192.271 141.05 192.474 141.526 192.474 142.124C192.474 142.722 192.271 143.206 191.866 143.576C191.479 143.928 190.951 144.104 190.282 144.104Z" fill="#F31717"/>
<path d="M199.908 137.108V135.26C199.908 134.222 200.225 133.394 200.858 132.778C201.492 132.145 202.319 131.828 203.34 131.828C203.991 131.828 204.546 131.942 205.003 132.171C205.461 132.4 205.848 132.69 206.165 133.042C206.499 133.377 206.798 133.72 207.062 134.072C207.326 134.406 207.599 134.688 207.881 134.917C208.162 135.146 208.479 135.26 208.831 135.26C209.236 135.26 209.544 135.137 209.755 134.89C209.966 134.644 210.072 134.283 210.072 133.808V131.96H212.316V133.808C212.316 134.829 211.999 135.656 211.366 136.29C210.75 136.923 209.922 137.24 208.884 137.24C208.233 137.24 207.678 137.126 207.221 136.897C206.763 136.668 206.367 136.386 206.033 136.052C205.716 135.7 205.426 135.357 205.162 135.022C204.898 134.67 204.625 134.38 204.343 134.151C204.062 133.922 203.745 133.808 203.393 133.808C203.006 133.808 202.698 133.931 202.469 134.178C202.258 134.424 202.152 134.785 202.152 135.26V137.108H199.908ZM216.213 143.84L217.19 138.56H214.946V136.844H217.507L218.457 131.564H215.87V129.848H218.774L219.751 124.568H221.599L220.622 129.848H224.846L225.823 124.568H227.671L226.694 129.848H228.938V131.564H226.377L225.427 136.844H228.014V138.56H225.11L224.133 143.84H222.285L223.262 138.56H219.038L218.061 143.84H216.213ZM219.355 136.844H223.579L224.529 131.564H220.305L219.355 136.844ZM253.707 144.104C252.545 144.104 251.533 143.884 250.671 143.444C249.826 143.004 249.166 142.37 248.691 141.543C248.233 140.698 248.004 139.704 248.004 138.56V129.848C248.004 128.686 248.233 127.692 248.691 126.865C249.166 126.038 249.826 125.404 250.671 124.964C251.533 124.524 252.545 124.304 253.707 124.304C254.868 124.304 255.872 124.533 256.716 124.99C257.561 125.43 258.212 126.064 258.67 126.891C259.128 127.718 259.356 128.704 259.356 129.848H256.98C256.98 128.757 256.69 127.921 256.109 127.34C255.546 126.742 254.745 126.442 253.707 126.442C252.668 126.442 251.85 126.733 251.252 127.314C250.671 127.894 250.38 128.73 250.38 129.822V138.56C250.38 139.651 250.671 140.496 251.252 141.094C251.85 141.693 252.668 141.992 253.707 141.992C254.745 141.992 255.546 141.693 256.109 141.094C256.69 140.496 256.98 139.651 256.98 138.56V136.184H253.073V134.019H259.356V138.56C259.356 139.686 259.128 140.672 258.67 141.517C258.212 142.344 257.561 142.986 256.716 143.444C255.872 143.884 254.868 144.104 253.707 144.104ZM263.94 143.84V124.568H268.929C270.179 124.568 271.252 124.806 272.15 125.281C273.065 125.756 273.769 126.425 274.262 127.287C274.772 128.15 275.028 129.17 275.028 130.35V138.032C275.028 139.211 274.772 140.241 274.262 141.121C273.769 141.983 273.065 142.652 272.15 143.127C271.252 143.602 270.179 143.84 268.929 143.84H263.94ZM266.316 141.728H268.929C270.091 141.728 270.997 141.402 271.648 140.751C272.317 140.1 272.652 139.194 272.652 138.032V130.35C272.652 129.206 272.317 128.308 271.648 127.657C270.997 127.006 270.091 126.68 268.929 126.68H266.316V141.728ZM279.796 143.84V124.568H285.261C287.021 124.568 288.393 125.008 289.379 125.888C290.382 126.768 290.884 127.991 290.884 129.558C290.884 130.438 290.699 131.203 290.329 131.854C289.96 132.506 289.432 133.007 288.745 133.359C288.077 133.711 287.267 133.878 286.317 133.861V133.465C287.337 133.447 288.217 133.641 288.957 134.046C289.713 134.45 290.294 135.031 290.699 135.788C291.121 136.545 291.333 137.442 291.333 138.481C291.333 139.572 291.104 140.522 290.646 141.332C290.189 142.142 289.537 142.766 288.693 143.206C287.848 143.629 286.836 143.84 285.657 143.84H279.796ZM282.119 141.702H285.393C286.501 141.702 287.373 141.411 288.006 140.83C288.657 140.232 288.983 139.422 288.983 138.402C288.983 137.346 288.657 136.492 288.006 135.841C287.373 135.172 286.501 134.838 285.393 134.838H282.119V141.702ZM282.119 132.778H285.234C286.255 132.778 287.056 132.506 287.637 131.96C288.235 131.414 288.534 130.675 288.534 129.742C288.534 128.81 288.244 128.07 287.663 127.525C287.082 126.979 286.281 126.706 285.261 126.706H282.119V132.778ZM316.92 144.104C316.251 144.104 315.714 143.91 315.31 143.523C314.922 143.136 314.729 142.617 314.729 141.966C314.729 141.279 314.922 140.734 315.31 140.329C315.714 139.924 316.251 139.722 316.92 139.722C317.589 139.722 318.117 139.924 318.504 140.329C318.909 140.734 319.111 141.279 319.111 141.966C319.111 142.617 318.909 143.136 318.504 143.523C318.117 143.91 317.589 144.104 316.92 144.104ZM326.81 146.744L336.182 121.928H338.69L329.318 146.744H326.81ZM342.402 143.84V129.32H344.487V131.062H344.963L344.593 131.696C344.593 130.886 344.804 130.244 345.227 129.769C345.667 129.294 346.256 129.056 346.995 129.056C347.805 129.056 348.43 129.355 348.87 129.954C349.31 130.552 349.53 131.397 349.53 132.488L348.817 131.062H349.926L349.424 131.696C349.424 130.886 349.644 130.244 350.084 129.769C350.542 129.294 351.14 129.056 351.879 129.056C352.795 129.056 353.499 129.399 353.991 130.086C354.502 130.772 354.757 131.678 354.757 132.805V143.84H352.566V132.778C352.566 132.18 352.434 131.714 352.17 131.379C351.923 131.045 351.554 130.878 351.061 130.878C350.586 130.878 350.207 131.045 349.926 131.379C349.662 131.696 349.53 132.154 349.53 132.752V143.84H347.629V132.778C347.629 132.162 347.488 131.696 347.207 131.379C346.943 131.045 346.564 130.878 346.071 130.878C345.579 130.878 345.209 131.045 344.963 131.379C344.716 131.696 344.593 132.154 344.593 132.752V143.84H342.402ZM363.142 144.104C361.611 144.104 360.405 143.717 359.525 142.942C358.645 142.15 358.205 141.086 358.205 139.748C358.205 138.393 358.645 137.328 359.525 136.554C360.405 135.779 361.593 135.392 363.089 135.392H367.577V133.94C367.577 133.042 367.304 132.356 366.759 131.881C366.231 131.388 365.474 131.142 364.488 131.142C363.626 131.142 362.904 131.326 362.323 131.696C361.743 132.048 361.408 132.532 361.32 133.148H358.944C359.103 131.898 359.692 130.904 360.713 130.165C361.734 129.426 363.01 129.056 364.541 129.056C366.213 129.056 367.533 129.487 368.501 130.35C369.469 131.212 369.953 132.382 369.953 133.861V143.84H367.63V141.068H367.234L367.63 140.672C367.63 141.728 367.216 142.564 366.389 143.18C365.579 143.796 364.497 144.104 363.142 144.104ZM363.723 142.23C364.849 142.23 365.773 141.948 366.495 141.385C367.216 140.822 367.577 140.1 367.577 139.22V137.161H363.142C362.35 137.161 361.725 137.381 361.267 137.821C360.81 138.261 360.581 138.859 360.581 139.616C360.581 140.426 360.854 141.068 361.399 141.543C361.963 142.001 362.737 142.23 363.723 142.23ZM381.823 143.84C380.573 143.84 379.596 143.506 378.892 142.837C378.206 142.168 377.863 141.226 377.863 140.012V131.485H373.771V129.32H377.863V125.228H380.239V129.32H386.047V131.485H380.239V140.012C380.239 141.121 380.767 141.675 381.823 141.675H385.783V143.84H381.823ZM396.042 144.104C394.37 144.104 393.032 143.611 392.029 142.626C391.026 141.622 390.524 140.267 390.524 138.56V129.32H392.9V138.56C392.9 139.651 393.182 140.505 393.745 141.121C394.308 141.719 395.074 142.018 396.042 142.018C397.028 142.018 397.802 141.719 398.365 141.121C398.946 140.505 399.236 139.651 399.236 138.56V129.32H401.612V138.56C401.612 140.267 401.102 141.622 400.081 142.626C399.06 143.611 397.714 144.104 396.042 144.104ZM406.908 143.84V129.32H409.232V132.092H409.786L409.02 133.808C409.02 132.242 409.355 131.062 410.024 130.27C410.71 129.461 411.722 129.056 413.06 129.056C414.591 129.056 415.805 129.54 416.703 130.508C417.618 131.458 418.076 132.752 418.076 134.389V135.26H415.7V134.6C415.7 133.456 415.418 132.585 414.855 131.986C414.309 131.37 413.526 131.062 412.505 131.062C411.502 131.062 410.71 131.37 410.129 131.986C409.566 132.602 409.284 133.474 409.284 134.6V143.84H406.908ZM422.052 143.84V141.675H427.2V131.485H422.712V129.32H429.576V141.675H434.46V143.84L422.052 143.84ZM428.124 126.706C427.543 126.706 427.085 126.557 426.751 126.258C426.417 125.958 426.249 125.554 426.249 125.043C426.249 124.515 426.417 124.102 426.751 123.802C427.085 123.486 427.543 123.327 428.124 123.327C428.705 123.327 429.162 123.486 429.497 123.802C429.831 124.102 429.998 124.515 429.998 125.043C429.998 125.554 429.831 125.958 429.497 126.258C429.162 126.557 428.705 126.706 428.124 126.706ZM445.141 143.84C443.892 143.84 442.915 143.506 442.211 142.837C441.525 142.168 441.181 141.226 441.181 140.012V131.485H437.089V129.32H441.181V125.228H443.557V129.32H449.365V131.485H443.557V140.012C443.557 141.121 444.085 141.675 445.141 141.675H449.101V143.84H445.141ZM458.12 144.104C456.589 144.104 455.383 143.717 454.503 142.942C453.623 142.15 453.183 141.086 453.183 139.748C453.183 138.393 453.623 137.328 454.503 136.554C455.383 135.779 456.571 135.392 458.067 135.392H462.555V133.94C462.555 133.042 462.282 132.356 461.737 131.881C461.209 131.388 460.452 131.142 459.466 131.142C458.604 131.142 457.882 131.326 457.302 131.696C456.721 132.048 456.386 132.532 456.298 133.148H453.922C454.081 131.898 454.67 130.904 455.691 130.165C456.712 129.426 457.988 129.056 459.519 129.056C461.191 129.056 462.511 129.487 463.479 130.35C464.447 131.212 464.931 132.382 464.931 133.861V143.84H462.608V141.068H462.212L462.608 140.672C462.608 141.728 462.194 142.564 461.367 143.18C460.558 143.796 459.475 144.104 458.12 144.104ZM458.701 142.23C459.827 142.23 460.751 141.948 461.473 141.385C462.194 140.822 462.555 140.1 462.555 139.22V137.161H458.12C457.328 137.161 456.703 137.381 456.246 137.821C455.788 138.261 455.559 138.859 455.559 139.616C455.559 140.426 455.832 141.068 456.378 141.543C456.941 142.001 457.715 142.23 458.701 142.23Z" fill="white"/>
</g>
<rect x="14.3452" y="7.69004" width="507.1" height="498.3" rx="25.85" stroke="#2E2E2E" stroke-width="3.3"/>
</g>
<defs>
<filter id="filter0_d_8_51" x="0.69519" y="0.0400391" width="534.4" height="525.6" filterUnits="userSpaceOnUse" color-interpolation-filters="sRGB">
<feFlood flood-opacity="0" result="BackgroundImageFix"/>
<feColorMatrix in="SourceAlpha" type="matrix" values="0 0 0 0 0 0 0 0 0 0 0 0 0 0 0 0 0 0 127 0" result="hardAlpha"/>
<feMorphology radius="6" operator="dilate" in="SourceAlpha" result="effect1_dropShadow_8_51"/>
<feOffset dy="6"/>
<feGaussianBlur stdDeviation="3"/>
<feComposite in2="hardAlpha" operator="out"/>
<feColorMatrix type="matrix" values="0 0 0 0 0 0 0 0 0 0 0 0 0 0 0 0 0 0 0.25 0"/>
<feBlend mode="normal" in2="BackgroundImageFix" result="effect1_dropShadow_8_51"/>
<feBlend mode="normal" in="SourceGraphic" in2="effect1_dropShadow_8_51" result="shape"/>
</filter>
<clipPath id="clip0_8_51">
<rect x="12.6952" y="6.04004" width="510.4" height="501.6" rx="27.5" fill="white"/>
</clipPath>
</defs>
</svg>
