<svg width="535" height="526" viewBox="0 0 535 526" fill="none" xmlns="http://www.w3.org/2000/svg">
<g filter="url(#filter0_d_8_58)">
<g clip-path="url(#clip0_8_58)">
<rect x="12" y="6" width="510.4" height="501.6" rx="27.5" fill="#131313"/>
<path d="M12 33.5C12 18.3122 24.3122 6 39.5 6H494.9C510.088 6 522.4 18.3122 522.4 33.5V55.5H12V33.5Z" fill="#202020"/>
<path d="M424.5 30.75C424.5 38.3439 418.344 44.5 410.75 44.5C403.156 44.5 397 38.3439 397 30.75C397 23.1561 403.156 17 410.75 17C418.344 17 424.5 23.1561 424.5 30.75Z" fill="#08FF00"/>
<circle cx="447.05" cy="30.75" r="13.75" fill="#E6FF00"/>
<circle cx="483.35" cy="30.75" r="13.75" fill="#FF0000"/>
<path d="M42.1304 143.8V129.28H44.4536V132.052H45.008L44.2424 133.768C44.2424 132.202 44.5768 131.022 45.2456 130.23C45.932 129.421 46.944 129.016 48.2816 129.016C49.8128 129.016 51.0272 129.5 51.9248 130.468C52.84 131.418 53.2976 132.712 53.2976 134.349V135.22H50.9216V134.56C50.9216 133.416 50.64 132.545 50.0768 131.946C49.5312 131.33 48.748 131.022 47.7272 131.022C46.724 131.022 45.932 131.33 45.3512 131.946C44.788 132.562 44.5064 133.434 44.5064 134.56V143.8H42.1304ZM62.9496 144.011C61.788 144.011 60.7848 143.791 59.94 143.351C59.0952 142.911 58.4352 142.278 57.96 141.45C57.5024 140.606 57.2736 139.611 57.2736 138.467V134.613C57.2736 133.451 57.5024 132.457 57.96 131.63C58.4352 130.802 59.0952 130.169 59.94 129.729C60.7848 129.289 61.788 129.069 62.9496 129.069C64.1112 129.069 65.1144 129.289 65.9592 129.729C66.804 130.169 67.4552 130.802 67.9128 131.63C68.388 132.457 68.6256 133.442 68.6256 134.586V138.467C68.6256 139.611 68.388 140.606 67.9128 141.45C67.4552 142.278 66.804 142.911 65.9592 143.351C65.1144 143.791 64.1112 144.011 62.9496 144.011ZM62.9496 141.899C63.988 141.899 64.7976 141.609 65.3784 141.028C65.9592 140.447 66.2496 139.594 66.2496 138.467V134.613C66.2496 133.486 65.9592 132.633 65.3784 132.052C64.7976 131.471 63.988 131.181 62.9496 131.181C61.9288 131.181 61.1192 131.471 60.5208 132.052C59.94 132.633 59.6496 133.486 59.6496 134.613V138.467C59.6496 139.594 59.94 140.447 60.5208 141.028C61.1192 141.609 61.9288 141.899 62.9496 141.899ZM78.7793 144.011C77.6177 144.011 76.6145 143.791 75.7697 143.351C74.9249 142.911 74.2649 142.278 73.7897 141.45C73.3321 140.606 73.1033 139.611 73.1033 138.467V134.613C73.1033 133.451 73.3321 132.457 73.7897 131.63C74.2649 130.802 74.9249 130.169 75.7697 129.729C76.6145 129.289 77.6177 129.069 78.7793 129.069C79.9409 129.069 80.9441 129.289 81.7889 129.729C82.6337 130.169 83.2849 130.802 83.7425 131.63C84.2177 132.457 84.4553 133.442 84.4553 134.586V138.467C84.4553 139.611 84.2177 140.606 83.7425 141.45C83.2849 142.278 82.6337 142.911 81.7889 143.351C80.9441 143.791 79.9409 144.011 78.7793 144.011ZM78.7793 141.899C79.8177 141.899 80.6273 141.609 81.2081 141.028C81.7889 140.447 82.0793 139.594 82.0793 138.467V134.613C82.0793 133.486 81.7889 132.633 81.2081 132.052C80.6273 131.471 79.8177 131.181 78.7793 131.181C77.7585 131.181 76.9489 131.471 76.3505 132.052C75.7697 132.633 75.4793 133.486 75.4793 134.613V138.467C75.4793 139.594 75.7697 140.447 76.3505 141.028C76.9489 141.609 77.7585 141.899 78.7793 141.899ZM96.193 143.8C94.9434 143.8 93.9666 143.466 93.2626 142.797C92.5762 142.128 92.233 141.186 92.233 139.972V131.445H88.141V129.28H92.233V125.188H94.609V129.28H100.417V131.445H94.609V139.972C94.609 141.081 95.137 141.635 96.193 141.635H100.153V143.8H96.193ZM111.099 148.552C109.603 148.552 108.3 148.235 107.192 147.602C106.083 146.986 105.22 146.097 104.604 144.935C104.006 143.791 103.707 142.445 103.707 140.896V131.92C103.707 130.336 103.988 128.972 104.552 127.828C105.132 126.684 105.951 125.804 107.007 125.188C108.08 124.572 109.356 124.264 110.835 124.264C112.172 124.264 113.325 124.528 114.293 125.056C115.261 125.566 116 126.306 116.511 127.274C117.039 128.242 117.303 129.394 117.303 130.732V142.084H115.428V140.632H114.689L115.191 140.104C115.191 140.773 114.936 141.318 114.425 141.741C113.915 142.146 113.237 142.348 112.392 142.348C111.248 142.348 110.368 142.005 109.752 141.318C109.154 140.614 108.855 139.594 108.855 138.256V135.088C108.855 133.75 109.154 132.738 109.752 132.052C110.368 131.348 111.248 130.996 112.392 130.996C113.237 130.996 113.915 131.207 114.425 131.63C114.936 132.034 115.191 132.58 115.191 133.266L114.821 132.712H115.455L115.191 130.864V130.732C115.191 129.729 115.024 128.884 114.689 128.198C114.355 127.511 113.862 126.992 113.211 126.64C112.577 126.288 111.785 126.112 110.835 126.112C109.251 126.112 108.019 126.622 107.139 127.643C106.259 128.664 105.819 130.09 105.819 131.92V140.896C105.819 142.656 106.285 144.038 107.218 145.041C108.168 146.062 109.462 146.572 111.099 146.572H112.947V148.552H111.099ZM113.079 140.685C113.8 140.685 114.328 140.465 114.663 140.025C115.015 139.585 115.191 138.907 115.191 137.992V135.062C115.191 134.234 115.015 133.627 114.663 133.24C114.328 132.853 113.8 132.659 113.079 132.659C112.375 132.659 111.847 132.862 111.495 133.266C111.143 133.654 110.967 134.261 110.967 135.088V138.256C110.967 139.083 111.143 139.699 111.495 140.104C111.847 140.491 112.375 140.685 113.079 140.685ZM125.001 144.064C123.47 144.064 122.264 143.677 121.384 142.902C120.504 142.11 120.064 141.046 120.064 139.708C120.064 138.353 120.504 137.288 121.384 136.514C122.264 135.739 123.452 135.352 124.948 135.352H129.436V133.9C129.436 133.002 129.164 132.316 128.618 131.841C128.09 131.348 127.333 131.102 126.348 131.102C125.485 131.102 124.764 131.286 124.183 131.656C123.602 132.008 123.268 132.492 123.18 133.108H120.804C120.962 131.858 121.552 130.864 122.572 130.125C123.593 129.386 124.869 129.016 126.4 129.016C128.072 129.016 129.392 129.447 130.36 130.31C131.328 131.172 131.812 132.342 131.812 133.821V143.8H129.489V141.028H129.093L129.489 140.632C129.489 141.688 129.076 142.524 128.248 143.14C127.439 143.756 126.356 144.064 125.001 144.064ZM125.582 142.19C126.708 142.19 127.632 141.908 128.354 141.345C129.076 140.782 129.436 140.06 129.436 139.18V137.121H125.001C124.209 137.121 123.584 137.341 123.127 137.781C122.669 138.221 122.44 138.819 122.44 139.576C122.44 140.386 122.713 141.028 123.259 141.503C123.822 141.961 124.596 142.19 125.582 142.19ZM144.078 143.8C143.233 143.8 142.494 143.633 141.86 143.298C141.227 142.964 140.734 142.489 140.382 141.873C140.03 141.257 139.854 140.535 139.854 139.708V126.693H134.97V124.528H142.23V139.708C142.23 140.306 142.397 140.782 142.732 141.134C143.066 141.468 143.515 141.635 144.078 141.635H148.698V143.8H144.078ZM157.928 144.064C156.784 144.064 155.781 143.835 154.918 143.378C154.073 142.92 153.413 142.278 152.938 141.45C152.481 140.606 152.252 139.629 152.252 138.52V134.56C152.252 133.434 152.481 132.457 152.938 131.63C153.413 130.802 154.073 130.16 154.918 129.702C155.781 129.245 156.784 129.016 157.928 129.016C159.072 129.016 160.066 129.245 160.911 129.702C161.773 130.16 162.433 130.802 162.891 131.63C163.366 132.457 163.604 133.434 163.604 134.56V137.121H154.575V138.52C154.575 139.664 154.865 140.544 155.446 141.16C156.027 141.758 156.854 142.058 157.928 142.058C158.843 142.058 159.582 141.899 160.145 141.582C160.709 141.248 161.052 140.755 161.175 140.104H163.551C163.393 141.318 162.794 142.286 161.756 143.008C160.735 143.712 159.459 144.064 157.928 144.064ZM161.281 135.537V134.56C161.281 133.416 160.99 132.536 160.409 131.92C159.846 131.304 159.019 130.996 157.928 130.996C156.854 130.996 156.027 131.304 155.446 131.92C154.865 132.536 154.575 133.416 154.575 134.56V135.326H161.465L161.281 135.537ZM167.157 143.8L172.305 136.329L167.474 129.28H170.273L173.15 133.768C173.273 133.962 173.388 134.173 173.493 134.402C173.617 134.63 173.713 134.815 173.784 134.956C173.837 134.815 173.916 134.63 174.021 134.402C174.145 134.173 174.268 133.962 174.391 133.768L177.295 129.28H180.067L175.236 136.355L180.357 143.8H177.559L174.444 139.048C174.321 138.854 174.197 138.634 174.074 138.388C173.969 138.124 173.872 137.913 173.784 137.754C173.713 137.913 173.608 138.124 173.467 138.388C173.344 138.634 173.212 138.854 173.071 139.048L169.929 143.8H167.157ZM189.587 132.976C188.936 132.976 188.408 132.8 188.003 132.448C187.598 132.078 187.396 131.594 187.396 130.996C187.396 130.398 187.598 129.922 188.003 129.57C188.408 129.201 188.936 129.016 189.587 129.016C190.256 129.016 190.784 129.201 191.171 129.57C191.576 129.922 191.778 130.398 191.778 130.996C191.778 131.594 191.576 132.078 191.171 132.448C190.784 132.8 190.256 132.976 189.587 132.976ZM189.587 144.064C188.936 144.064 188.408 143.888 188.003 143.536C187.598 143.166 187.396 142.682 187.396 142.084C187.396 141.486 187.598 141.01 188.003 140.658C188.408 140.289 188.936 140.104 189.587 140.104C190.256 140.104 190.784 140.289 191.171 140.658C191.576 141.01 191.778 141.486 191.778 142.084C191.778 142.682 191.576 143.166 191.171 143.536C190.784 143.888 190.256 144.064 189.587 144.064Z" fill="#F31717"/>
<path d="M199.213 137.068V135.22C199.213 134.182 199.53 133.354 200.163 132.738C200.797 132.105 201.624 131.788 202.645 131.788C203.296 131.788 203.85 131.902 204.308 132.131C204.766 132.36 205.153 132.65 205.47 133.002C205.804 133.337 206.103 133.68 206.367 134.032C206.631 134.366 206.904 134.648 207.186 134.877C207.467 135.106 207.784 135.22 208.136 135.22C208.541 135.22 208.849 135.097 209.06 134.85C209.271 134.604 209.377 134.243 209.377 133.768V131.92H211.621V133.768C211.621 134.789 211.304 135.616 210.67 136.25C210.054 136.883 209.227 137.2 208.189 137.2C207.538 137.2 206.983 137.086 206.526 136.857C206.068 136.628 205.672 136.346 205.338 136.012C205.021 135.66 204.73 135.317 204.466 134.982C204.202 134.63 203.93 134.34 203.648 134.111C203.366 133.882 203.05 133.768 202.698 133.768C202.31 133.768 202.002 133.891 201.774 134.138C201.562 134.384 201.457 134.745 201.457 135.22V137.068H199.213ZM215.518 143.8L216.495 138.52H214.251V136.804H216.811L217.762 131.524H215.175V129.808H218.079L219.055 124.528H220.903L219.927 129.808H224.151L225.127 124.528H226.975L225.999 129.808H228.243V131.524H225.682L224.731 136.804H227.319V138.52H224.415L223.438 143.8H221.59L222.567 138.52H218.343L217.366 143.8H215.518ZM218.659 136.804H222.883L223.834 131.524H219.61L218.659 136.804ZM247.415 143.8V129.28H249.791V132.052H250.292L249.791 132.606C249.791 131.462 250.134 130.582 250.82 129.966C251.507 129.333 252.457 129.016 253.672 129.016C255.132 129.016 256.294 129.465 257.156 130.362C258.019 131.26 258.45 132.483 258.45 134.032V143.8H256.074V134.296C256.074 133.258 255.792 132.466 255.229 131.92C254.684 131.357 253.936 131.075 252.985 131.075C252 131.075 251.216 131.374 250.636 131.973C250.072 132.571 249.791 133.434 249.791 134.56V143.8H247.415ZM262.558 143.8V129.28H264.644V131.022H265.119L264.749 131.656C264.749 130.846 264.96 130.204 265.383 129.729C265.823 129.254 266.412 129.016 267.152 129.016C267.961 129.016 268.586 129.315 269.026 129.914C269.466 130.512 269.686 131.357 269.686 132.448L268.973 131.022H270.082L269.58 131.656C269.58 130.846 269.8 130.204 270.24 129.729C270.698 129.254 271.296 129.016 272.036 129.016C272.951 129.016 273.655 129.359 274.148 130.046C274.658 130.732 274.913 131.638 274.913 132.765V143.8H272.722V132.738C272.722 132.14 272.59 131.674 272.326 131.339C272.08 131.005 271.71 130.838 271.217 130.838C270.742 130.838 270.364 131.005 270.082 131.339C269.818 131.656 269.686 132.114 269.686 132.712V143.8H267.785V132.738C267.785 132.122 267.644 131.656 267.363 131.339C267.099 131.005 266.72 130.838 266.228 130.838C265.735 130.838 265.365 131.005 265.119 131.339C264.872 131.656 264.749 132.114 264.749 132.712V143.8H262.558ZM279.074 148.552V129.28H281.45V132.052H281.925L281.45 132.606C281.45 131.498 281.811 130.626 282.532 129.993C283.272 129.342 284.24 129.016 285.436 129.016C286.897 129.016 288.059 129.5 288.921 130.468C289.801 131.418 290.241 132.73 290.241 134.402V138.652C290.241 139.761 290.039 140.72 289.634 141.53C289.247 142.339 288.692 142.964 287.971 143.404C287.267 143.844 286.422 144.064 285.436 144.064C284.257 144.064 283.298 143.738 282.559 143.087C281.82 142.436 281.45 141.565 281.45 140.474L281.925 141.028H281.397L281.45 144.328V148.552H279.074ZM284.644 142.005C285.648 142.005 286.431 141.706 286.994 141.107C287.575 140.509 287.865 139.646 287.865 138.52V134.56C287.865 133.434 287.575 132.571 286.994 131.973C286.431 131.374 285.648 131.075 284.644 131.075C283.676 131.075 282.902 131.383 282.321 131.999C281.74 132.615 281.45 133.469 281.45 134.56V138.52C281.45 139.611 281.74 140.465 282.321 141.081C282.902 141.697 283.676 142.005 284.644 142.005ZM299.128 144.064C297.597 144.064 296.391 143.677 295.511 142.902C294.631 142.11 294.191 141.046 294.191 139.708C294.191 138.353 294.631 137.288 295.511 136.514C296.391 135.739 297.579 135.352 299.075 135.352H303.563V133.9C303.563 133.002 303.29 132.316 302.745 131.841C302.217 131.348 301.46 131.102 300.474 131.102C299.612 131.102 298.89 131.286 298.309 131.656C297.729 132.008 297.394 132.492 297.306 133.108H294.93C295.089 131.858 295.678 130.864 296.699 130.125C297.72 129.386 298.996 129.016 300.527 129.016C302.199 129.016 303.519 129.447 304.487 130.31C305.455 131.172 305.939 132.342 305.939 133.821V143.8H303.616V141.028H303.22L303.616 140.632C303.616 141.688 303.202 142.524 302.375 143.14C301.565 143.756 300.483 144.064 299.128 144.064ZM299.709 142.19C300.835 142.19 301.759 141.908 302.481 141.345C303.202 140.782 303.563 140.06 303.563 139.18V137.121H299.128C298.336 137.121 297.711 137.341 297.253 137.781C296.796 138.221 296.567 138.819 296.567 139.576C296.567 140.386 296.84 141.028 297.385 141.503C297.949 141.961 298.723 142.19 299.709 142.19ZM310.733 148.552V129.28H313.109V132.052H313.585L313.109 132.606C313.109 131.498 313.47 130.626 314.192 129.993C314.931 129.342 315.899 129.016 317.096 129.016C318.557 129.016 319.718 129.5 320.581 130.468C321.461 131.418 321.901 132.73 321.901 134.402V138.652C321.901 139.761 321.698 140.72 321.293 141.53C320.906 142.339 320.352 142.964 319.63 143.404C318.926 143.844 318.081 144.064 317.096 144.064C315.917 144.064 314.957 143.738 314.218 143.087C313.479 142.436 313.109 141.565 313.109 140.474L313.585 141.028H313.057L313.109 144.328V148.552H310.733ZM316.304 142.005C317.307 142.005 318.09 141.706 318.653 141.107C319.234 140.509 319.525 139.646 319.525 138.52V134.56C319.525 133.434 319.234 132.571 318.653 131.973C318.09 131.374 317.307 131.075 316.304 131.075C315.336 131.075 314.561 131.383 313.981 131.999C313.4 132.615 313.109 133.469 313.109 134.56V138.52C313.109 139.611 313.4 140.465 313.981 141.081C314.561 141.697 315.336 142.005 316.304 142.005Z" fill="white"/>
</g>
<rect x="13.65" y="7.65" width="507.1" height="498.3" rx="25.85" stroke="#2E2E2E" stroke-width="3.3"/>
</g>
<defs>
<filter id="filter0_d_8_58" x="0" y="0" width="534.4" height="525.6" filterUnits="userSpaceOnUse" color-interpolation-filters="sRGB">
<feFlood flood-opacity="0" result="BackgroundImageFix"/>
<feColorMatrix in="SourceAlpha" type="matrix" values="0 0 0 0 0 0 0 0 0 0 0 0 0 0 0 0 0 0 127 0" result="hardAlpha"/>
<feMorphology radius="6" operator="dilate" in="SourceAlpha" result="effect1_dropShadow_8_58"/>
<feOffset dy="6"/>
<feGaussianBlur stdDeviation="3"/>
<feComposite in2="hardAlpha" operator="out"/>
<feColorMatrix type="matrix" values="0 0 0 0 0 0 0 0 0 0 0 0 0 0 0 0 0 0 0.25 0"/>
<feBlend mode="normal" in2="BackgroundImageFix" result="effect1_dropShadow_8_58"/>
<feBlend mode="normal" in="SourceGraphic" in2="effect1_dropShadow_8_58" result="shape"/>
</filter>
<clipPath id="clip0_8_58">
<rect x="12" y="6" width="510.4" height="501.6" rx="27.5" fill="white"/>
</clipPath>
</defs>
</svg>
